<svg xmlns="http://www.w3.org/2000/svg" xmlns:xlink="http://www.w3.org/1999/xlink" viewBox="0 0 939.01 371.91"><defs><style>.cls-1{fill:none;}.cls-2{font-size:48.78px;font-family:BellMT, Bell MT;letter-spacing:-0.07em;}.cls-18,.cls-2{fill:#b99f4d;}.cls-3{letter-spacing:-0.06em;}.cls-4{letter-spacing:-0.08em;}.cls-5{font-size:114.58px;font-family:BaskervilleLight, Baskerville;letter-spacing:-0.07em;}.cls-20,.cls-5{fill:#555656;}.cls-6{font-size:58.25px;fill:#737782;font-family:BaskervilleBold, Baskerville;letter-spacing:0.18em;}.cls-14,.cls-7{fill:#fff;}.cls-7{stroke:#1e5c89;stroke-miterlimit:10;stroke-width:4px;}.cls-8{fill:#1e5c89;}.cls-9{fill:#b89e4c;}.cls-10{clip-path:url(#clip-path);}.cls-11{fill:#f58428;}.cls-12{fill:#c42026;}.cls-13{fill:#010101;}.cls-15{fill:#f58223;}.cls-16{fill:#fecc45;}.cls-17{fill:#8b2b2c;}.cls-19{fill:#ee3634;}.cls-20{font-size:17.25px;font-family:BellMTBold, Bell MT;}</style><clipPath id="clip-path"><path class="cls-1" d="M697,23.45H863.39q.3,57.07.58,114.15c.15,29.85-10.28,59-30.06,80.85-.71.79-1.44,1.58-2.19,2.36A118.33,118.33,0,0,1,781.9,252a2.3,2.3,0,0,1-1.42,0,124.67,124.67,0,0,1-42.41-23.49c-.84-.7-1.65-1.41-2.46-2.13-26.42-23.56-40.83-58.28-40.28-94.18Q696.14,77.81,697,23.45Z"/></clipPath></defs><g id="Layer_2" data-name="Layer 2"><g id="Layer_1-2" data-name="Layer 1"><text class="cls-2" transform="translate(409.14 169.33)">Anu<tspan class="cls-3" x="73.37" y="0">r</tspan><tspan class="cls-4" x="89.63" y="0">adhapu</tspan><tspan class="cls-3" x="209.96" y="0">r</tspan><tspan class="cls-4" x="226.21" y="0">a</tspan></text><text class="cls-5" transform="translate(0 123.36)">The Kings Gate</text><text class="cls-6" transform="translate(1.48 357.81) scale(0.95 1)">INTERNATIONAL SCHOOL</text><path class="cls-7" d="M675.25,2.42,885.77,2l.36,136.46c.09,33.4-11.21,66-32.8,91.52-.76.9-1.54,1.79-2.33,2.68a149.75,149.75,0,0,1-68.9,43.82,142.73,142.73,0,0,1-68.23-38.58,139.65,139.65,0,0,1-18.46-23.38A135.81,135.81,0,0,1,675,141.91Q675.14,72.16,675.25,2.42Z"/><path class="cls-8" d="M781.42,256.56a1.26,1.26,0,0,1-.33-.05A133.84,133.84,0,0,1,735.72,232c-.89-.73-1.76-1.48-2.62-2.22-28-24.32-43.65-60.12-43.06-98.21l1.75-113.24h177l.62,119c.17,31.79-11.24,61.72-32.11,84.28q-1.15,1.23-2.34,2.46a127.46,127.46,0,0,1-53.27,32.49A1.12,1.12,0,0,1,781.42,256.56Z"/><path class="cls-9" d="M867.34,19.83l.4,77.17.21,40.29c.16,31.41-11.1,61-31.71,83.25-.76.81-1.54,1.63-2.32,2.43A125.85,125.85,0,0,1,781.42,255a132.48,132.48,0,0,1-44.74-24.19c-.87-.72-1.75-1.46-2.6-2.2-27.62-24-43.12-59.41-42.54-97.06l.87-56.46.86-55.3H867.34m3-3h-180l-1.77,114.71c-.59,37.88,15,74.51,43.57,99.37.87.76,1.76,1.51,2.66,2.25a135.75,135.75,0,0,0,45.88,24.78,2.5,2.5,0,0,0,1.53,0,128.69,128.69,0,0,0,53.89-32.87q1.21-1.24,2.37-2.49c21.39-23.12,32.67-53.82,32.51-85.31l-.63-120.44Z"/><g class="cls-10"><path class="cls-1" d="M864.11,269.85a2.22,2.22,0,0,1-2.23,2H697.68a2,2,0,0,1-1.94-2V26a2,2,0,0,1,1.94-2.11h164.2A2.3,2.3,0,0,1,864.11,26Z"/><polygon class="cls-11" points="764.17 204.86 799.78 204.38 794.19 195.63 794.19 191.78 795.36 190.34 803.06 190.94 801.88 177.73 799.58 147.87 799.24 138.23 802.7 135.66 803.91 131.67 807.29 128.8 811.09 127.05 810 121.12 810.42 116.06 801.03 91.95 795.71 91.36 792.18 83.41 761.06 90.17 757.99 91.95 757.9 99.45 761.39 136.84 761.64 149.11 760.48 157.97 758.9 161.72 756.07 164.79 750.26 167.51 752.34 175.52 756.66 193.5 764.17 204.86"/><rect class="cls-12" x="762.85" y="141.68" width="36.57" height="8.65"/><path class="cls-13" d="M799.82,150.74H762.45v-9.48h37.37Zm-36.17-.82H799v-7.83H763.65Z"/><rect class="cls-12" x="852.06" y="45.69" width="6.03" height="58.91"/><path class="cls-13" d="M858.49,105h-7.23V45.28h7.23Zm-6-1.23h5.23V46.1h-5.23Z"/><rect class="cls-14" x="852.06" y="42.81" width="6.03" height="2.88"/><path class="cls-13" d="M858.49,46.1h-7.23V41.57h7.23Zm-6-.82h5.23V43.22h-5.23Z"/><rect class="cls-14" x="852.06" y="39.1" width="6.03" height="3.71"/><path class="cls-13" d="M858.49,43.22h-7.23V38.69h7.23Zm-6-1.65h5.23V39.92h-5.23Z"/><rect class="cls-14" x="852.06" y="36.22" width="6.03" height="2.88"/><path class="cls-13" d="M858.49,39.92h-7.23V35.81h7.23Zm-6-1.23h5.23V36.63h-5.23Z"/><rect class="cls-14" x="850.05" y="33.33" width="10.45" height="2.88"/><path class="cls-13" d="M860.9,36.63H849.25V32.92H860.9Zm-10.45-.82h9.65V33.75h-9.65Z"/><ellipse class="cls-15" cx="854.9" cy="29.15" rx="3.72" ry="3.81"/><path class="cls-13" d="M854.9,33.46a4.31,4.31,0,1,1,4.2-4.31,4.27,4.27,0,0,1-4.2,4.31Zm0-7.62a3.31,3.31,0,1,0,3.23,3.31,3.27,3.27,0,0,0-3.23-3.31Z"/><path class="cls-16" d="M852.06,57l-11.81-2.5c.48-6.37,2-11.34,6.63-13.35a11.74,11.74,0,0,0-4.65-1c-8.68,0-19.94,9.85-19.94,22s11.24,22,19.92,22a11.6,11.6,0,0,0,4.62-1c-4.46-1.92-6-6.54-6.5-12.5l11.73-2.49V57Z"/><path class="cls-13" d="M842.2,84.71c-9.19,0-20.42-10.38-20.42-22.49s11.22-22.5,20.41-22.5a12,12,0,0,1,4.79,1l1.08.46-1.08.46c-3.8,1.64-5.65,5.5-6.25,12.49l11.74,2.49v12l-11.66,2.48c.67,6.45,2.57,10.05,6.27,11.64l1,.46L847,83.7a12.36,12.36,0,0,1-4.83,1Zm0-44c-8.75,0-19.43,9.92-19.43,21.49s10.69,21.5,19.44,21.5a10.92,10.92,0,0,0,3.39-.54c-3.47-2-5.31-5.87-5.92-12.38l0-.45,11.62-2.49V57.44l-11.68-2.5,0-.44c.36-4.83,1.38-10.59,5.95-13.25a11.14,11.14,0,0,0-3.37-.53Z"/><path class="cls-14" d="M855.13,53.09a1.55,1.55,0,1,1,1.51-1.55,1.53,1.53,0,0,1-1.51,1.55Z"/><path class="cls-13" d="M855.13,50.49a1.05,1.05,0,1,1-1,1,1,1,0,0,1,1-1m0-1a2.05,2.05,0,1,0,2,2,2,2,0,0,0-2-2Z"/><path class="cls-14" d="M855.13,61.71a1.55,1.55,0,1,1,1.51-1.55,1.53,1.53,0,0,1-1.51,1.55Z"/><path class="cls-13" d="M855.13,59.12a1.05,1.05,0,1,1-1,1.05,1,1,0,0,1,1-1.05m0-1a2.05,2.05,0,1,0,2,2,2,2,0,0,0-2-2Z"/><path class="cls-14" d="M855.13,70.34a1.55,1.55,0,1,1,1.51-1.55,1.54,1.54,0,0,1-1.51,1.55Z"/><path class="cls-13" d="M855.13,67.74a1.05,1.05,0,1,1-1,1.05,1,1,0,0,1,1-1.05m0-1a2.05,2.05,0,1,0,2,2.05,2,2,0,0,0-2-2.05Z"/><path class="cls-14" d="M855.13,79a1.55,1.55,0,1,1,1.51-1.55A1.54,1.54,0,0,1,855.13,79Z"/><path class="cls-13" d="M855.13,76.37a1,1,0,1,1-1,1,1,1,0,0,1,1-1m0-1a2,2,0,1,0,2,2,2,2,0,0,0-2-2Z"/><path class="cls-14" d="M855.13,87.59A1.55,1.55,0,1,1,856.64,86a1.53,1.53,0,0,1-1.51,1.55Z"/><path class="cls-13" d="M855.13,85a1.05,1.05,0,1,1-1,1.05,1,1,0,0,1,1-1.05m0-1a2.05,2.05,0,1,0,2,2.05,2,2,0,0,0-2-2.05Z"/><path class="cls-14" d="M855.13,96.21a1.55,1.55,0,1,1,1.51-1.54,1.53,1.53,0,0,1-1.51,1.54Z"/><path class="cls-13" d="M855.13,93.62a1.05,1.05,0,1,1-1,1,1,1,0,0,1,1-1m0-1a2,2,0,1,0,2,2,2,2,0,0,0-2-2Z"/><path class="cls-13" d="M842.13,81.94c-2.92,0-6.5-1.43-9.61-3.92a20.44,20.44,0,0,1-7.79-15.93,19.63,19.63,0,0,1,7.91-15.8c3.84-2.95,8.51-4.39,11.36-3.5l-.29,1c-2.56-.8-6.88.57-10.49,3.34a18.5,18.5,0,0,0-7.51,15,19.43,19.43,0,0,0,7.41,15.15c3.5,2.81,7.75,4.23,10.56,3.54l.23,1a7.36,7.36,0,0,1-1.78.2Z"/><rect class="cls-13" x="825.14" y="62.17" width="26.12" height="0.82"/><line class="cls-1" x1="756.14" y1="125.92" x2="804.89" y2="91.93"/><polygon class="cls-13" points="800.78 85.73 809 98.13 760.25 132.11 752.03 119.72 800.78 85.73"/><line class="cls-1" x1="756.14" y1="125.92" x2="804.89" y2="91.93"/><polygon class="cls-14" points="801.73 87.18 808.03 96.68 759.28 130.67 752.98 121.16 801.73 87.18"/><polygon class="cls-13" points="802.56 88.42 807.22 95.44 758.47 129.42 753.81 122.4 802.56 88.42"/><polygon class="cls-16" points="803.52 89.86 806.26 94 757.51 127.98 754.77 123.85 803.52 89.86"/><path class="cls-11" d="M748.67,122.81c-.84.4-1.74,0-2.57.1.89,1.76,1.67,3.49,1,5.45-.79,2.14-2.64,2.9-3.82,4.54-1,1.39,0,4.07.36,5.68.69,3,1.53,5.88,2,8.91.36,2.3.36,5.95,1.9,7.83a19,19,0,0,0,2.17-4.09c.77-1.78.66-3.95.63-5.83-.11-5.57-1-20.25-1.88-22"/><path class="cls-13" d="M752.48,168.78l-7.07-14.26c1.72-.89,2.3-1.19,2.7-5.23.61-6.07-.16-16.91-2.66-37.41,0-.23-.54-4.26-1-8.26s-1-8-1-8.13l15.48-2c0,.3.53,4.16,1,8,.51,4.08,1,8.2,1,8.34,2.73,22.35,3.46,33.47,2.7,41-.9,8.9-4.23,14.24-11.15,17.85ZM751.12,94.5l7.74-1h0l-7.74,1Z"/><path class="cls-14" d="M751.71,167.22l-5.52-11.14c1.89-1,2.93-1.52,3.5-5.57.74-5.29.24-14.7-1.67-31.48-.09-.8-.32-2.85-.6-5.37-.6-5.38-1.51-13.51-1.75-15.5l12.09-1.55c.25,2,1.13,9.9,1.77,15.63.28,2.51.5,4.54.59,5.34,2.1,18.39,2.56,28.13,1.63,34.72-1,7.32-4,11.79-10,14.92Z"/><path class="cls-13" d="M750.83,165.44l-3.76-7.58c5-2.6,7-5.48,2-46.45,0-.2-.27-1.93-.51-3.65-.39-2.79-.51-3.63-.52-3.78l8.22-1.06-4.11.53,4.11-.54.51,3.64c.39,2.81.51,3.65.53,3.81,2.65,21.77,3.41,33,2.69,40.18-.89,8.86-4.32,12.37-9.18,14.9Z"/><path class="cls-16" d="M750.05,163.88l-2.21-4.45c6.29-3.28,7.89-7.81,2.83-49.06l4.84-.63c5,41,4.21,49.1-5.46,54.14Z"/><polygon class="cls-16" points="738.67 131.69 752.2 179.92 744.71 182.13 731.18 133.91 738.67 131.69"/><polygon class="cls-13" points="740.7 132.25 754.23 180.48 750.48 181.58 736.95 133.35 740.7 132.25"/><polygon class="cls-14" points="742.65 132.25 756.18 180.48 752.43 181.58 738.9 133.35 742.65 132.25"/><polygon class="cls-13" points="743.18 132.53 756.71 180.75 754.83 181.31 741.3 133.08 743.18 132.53"/><path class="cls-14" d="M772.59,134.41a1.87,1.87,0,1,1,1.83-1.87,1.85,1.85,0,0,1-1.83,1.87Z"/><path class="cls-13" d="M772.59,131.17a1.38,1.38,0,1,1-1.34,1.37,1.35,1.35,0,0,1,1.34-1.37m0-1a2.38,2.38,0,1,0,2.32,2.38,2.35,2.35,0,0,0-2.32-2.38Z"/><path class="cls-14" d="M782.34,134.41a1.87,1.87,0,1,1,1.83-1.87,1.85,1.85,0,0,1-1.83,1.87Z"/><path class="cls-13" d="M782.34,131.17a1.38,1.38,0,1,1-1.34,1.37,1.35,1.35,0,0,1,1.34-1.37m0-1a2.38,2.38,0,1,0,2.32,2.38,2.35,2.35,0,0,0-2.32-2.38Z"/><path class="cls-14" d="M792.09,134.41a1.87,1.87,0,1,1,1.83-1.87,1.85,1.85,0,0,1-1.83,1.87Z"/><path class="cls-13" d="M792.09,131.17a1.38,1.38,0,1,1-1.34,1.37,1.35,1.35,0,0,1,1.34-1.37m0-1a2.38,2.38,0,1,0,2.32,2.38,2.35,2.35,0,0,0-2.32-2.38Z"/><path class="cls-14" d="M782.34,125.92a1.88,1.88,0,1,1,1.83-1.87,1.85,1.85,0,0,1-1.83,1.87Z"/><path class="cls-13" d="M782.34,122.67A1.38,1.38,0,1,1,781,124a1.36,1.36,0,0,1,1.34-1.37m0-1a2.38,2.38,0,1,0,2.32,2.37,2.34,2.34,0,0,0-2.32-2.37Z"/><path class="cls-14" d="M792.09,125.92a1.88,1.88,0,1,1,1.83-1.87,1.85,1.85,0,0,1-1.83,1.87Z"/><path class="cls-13" d="M792.09,122.67a1.38,1.38,0,1,1-1.34,1.37,1.36,1.36,0,0,1,1.34-1.37m0-1a2.38,2.38,0,1,0,2.32,2.37,2.34,2.34,0,0,0-2.32-2.37Z"/><path class="cls-14" d="M792.09,117.42a1.88,1.88,0,1,1,1.83-1.87,1.85,1.85,0,0,1-1.83,1.87Z"/><path class="cls-13" d="M792.09,114.17a1.38,1.38,0,1,1-1.34,1.38,1.36,1.36,0,0,1,1.34-1.38m0-1a2.38,2.38,0,1,0,2.32,2.38,2.35,2.35,0,0,0-2.32-2.38Z"/><line class="cls-1" x1="806.35" y1="167.02" x2="757.6" y2="201"/><polygon class="cls-13" points="802.25 160.82 810.47 173.22 761.73 207.2 753.5 194.8 802.25 160.82"/><line class="cls-1" x1="806.35" y1="167.02" x2="757.6" y2="201"/><polygon class="cls-14" points="803.2 162.26 809.5 171.77 760.75 205.75 754.45 196.25 803.2 162.26"/><polygon class="cls-13" points="804.01 163.5 808.67 170.52 759.92 204.51 755.26 197.48 804.01 163.5"/><polygon class="cls-16" points="804.99 164.95 807.73 169.08 758.98 203.07 756.24 198.93 804.99 164.95"/><path class="cls-11" d="M809.43,170.13c.84-.4,1.74.05,2.56-.1-.88-1.75-1.66-3.49-1-5.45.79-2.14,3.55-.7,4.74-2.35,1-1.38-.9-6.25-1.28-7.87-.69-3-1.53-5.88-2-8.9-.36-2.31-.36-6-1.9-7.83a18.52,18.52,0,0,0-2.17,4.08c-.77,1.78-.66,3.95-.63,5.84.11,5.56,1,20.25,1.88,22"/><path class="cls-13" d="M799.24,199.44h0l7.74-1-7.74,1Zm0,0c0-.31-.53-4.17-1-8.06-.52-4.08-1-8.19-1.05-8.33-2.73-22.36-3.46-33.48-2.7-41,.89-8.91,4.23-14.25,11.15-17.86l7.07,14.26c-1.72.89-2.3,1.2-2.71,5.23-.61,6.07.17,16.91,2.67,37.41,0,.23.53,4.26,1,8.26s1,8,1,8.13l-15.48,2Z"/><path class="cls-14" d="M800.34,196.34c-.25-2.05-1.13-9.9-1.77-15.64-.28-2.51-.5-4.54-.59-5.34-2.1-18.39-2.56-28.12-1.63-34.71,1-7.33,4-11.8,10-14.93l5.52,11.14c-1.89,1-2.93,1.53-3.5,5.57-.74,5.29-.24,14.7,1.67,31.48.09.8.32,2.85.6,5.37.6,5.39,1.51,13.52,1.75,15.5l-12.09,1.55Z"/><path class="cls-13" d="M801.84,190l-.51-3.64c-.4-2.81-.51-3.65-.53-3.81-2.66-21.77-3.41-33-2.69-40.18.89-8.86,4.31-12.36,9.17-14.9l3.75,7.58c-5,2.61-7,5.49-2,46.45,0,.2.27,1.93.51,3.66.39,2.79.51,3.62.53,3.77L801.83,190l4.12-.53-4.11.54Z"/><path class="cls-16" d="M802.59,183.2c-5-41-4.21-49.1,5.46-54.13l2.21,4.45c-6.29,3.28-7.89,7.8-2.83,49.06l-4.84.63Z"/><rect class="cls-12" x="701.37" y="191.52" width="6.43" height="58.91"/><path class="cls-13" d="M708.2,250.84H701V191.11h7.24Zm-6.43-1.23h5.62V191.93h-5.62Z"/><rect class="cls-14" x="701.37" y="250.43" width="6.43" height="2.88"/><path class="cls-13" d="M708.2,253.73H701v-4.12h7.24Zm-6.43-.83h5.62v-2.06h-5.62Z"/><rect class="cls-14" x="701.37" y="253.31" width="6.43" height="2.88"/><path class="cls-13" d="M708.2,256.61H701V252.9h7.24Zm-6.43-.82h5.62v-2.06h-5.62Z"/><rect class="cls-14" x="701.37" y="256.2" width="6.43" height="2.88"/><path class="cls-13" d="M708.2,259.91H701v-4.12h7.24Zm-6.43-1.24h5.62v-2.06h-5.62Z"/><rect class="cls-14" x="698.96" y="259.08" width="10.85" height="3.3"/><path class="cls-13" d="M710.21,262.79H698.55v-4.12h11.66Zm-10.85-1.24h10v-1.64h-10Z"/><ellipse class="cls-15" cx="704.86" cy="266.68" rx="3.72" ry="3.81"/><path class="cls-13" d="M704.86,271a4.31,4.31,0,1,1,4.2-4.31,4.27,4.27,0,0,1-4.2,4.31Zm0-7.62a3.31,3.31,0,1,0,3.23,3.31,3.27,3.27,0,0,0-3.23-3.31Z"/><path class="cls-16" d="M707.8,238.78l11.75,2.51c-.48,6.36-2,11.34-6.65,13.35a11.9,11.9,0,0,0,4.64,1c8.68,0,19.94-9.84,19.94-22s-11.25-22-19.93-22a11.76,11.76,0,0,0-4.62,1c4.46,1.92,6,6.55,6.55,12.51l-11.68,2.48v11.21Z"/><path class="cls-13" d="M717.56,256.1a12.23,12.23,0,0,1-4.81-1l-1.08-.47,1.08-.46c3.83-1.65,5.73-5.39,6.33-12.49l-11.69-2.48v-12l11.6-2.48c-.67-6.47-2.6-10.07-6.26-11.64l-1.07-.46,1.08-.46a12.07,12.07,0,0,1,4.81-1c9.19,0,20.42,10.38,20.42,22.49s-11.23,22.5-20.41,22.5Zm-3.39-1.53a11.2,11.2,0,0,0,3.38.53c8.75,0,19.44-9.92,19.44-21.49s-10.69-21.5-19.44-21.5a10.86,10.86,0,0,0-3.38.54c4.38,2.55,5.44,7.9,5.86,12.39l-.06.44L708.2,228v10.4L720,240.89l0,.44c-.37,4.83-1.34,10.59-5.88,13.24Z"/><path class="cls-14" d="M704.63,245.83a1.55,1.55,0,1,1,1.51-1.55,1.53,1.53,0,0,1-1.51,1.55Z"/><path class="cls-13" d="M704.63,243.23a1.05,1.05,0,1,1-1,1.05,1,1,0,0,1,1-1.05m0-1a2.05,2.05,0,1,0,2,2.05,2,2,0,0,0-2-2.05Z"/><path class="cls-14" d="M704.63,237.21a1.55,1.55,0,1,1,1.51-1.55,1.54,1.54,0,0,1-1.51,1.55Z"/><path class="cls-13" d="M704.63,234.61a1.05,1.05,0,1,1-1,1,1,1,0,0,1,1-1m0-1a2.05,2.05,0,1,0,2,2,2,2,0,0,0-2-2Z"/><path class="cls-14" d="M704.63,228.58a1.55,1.55,0,1,1,1.51-1.55,1.53,1.53,0,0,1-1.51,1.55Z"/><path class="cls-13" d="M704.63,226a1,1,0,1,1-1,1,1,1,0,0,1,1-1m0-1a2.05,2.05,0,1,0,2,2.05,2,2,0,0,0-2-2.05Z"/><path class="cls-14" d="M704.63,220a1.55,1.55,0,1,1,1.51-1.54,1.53,1.53,0,0,1-1.51,1.54Z"/><path class="cls-13" d="M704.63,217.36a1.05,1.05,0,1,1-1,1,1,1,0,0,1,1-1m0-1a2.05,2.05,0,1,0,2,2,2,2,0,0,0-2-2Z"/><path class="cls-14" d="M704.63,211.33a1.55,1.55,0,1,1,1.51-1.55,1.53,1.53,0,0,1-1.51,1.55Z"/><path class="cls-13" d="M704.63,208.73a1.05,1.05,0,1,1-1,1.05,1,1,0,0,1,1-1.05m0-1a2.05,2.05,0,1,0,2,2.05,2,2,0,0,0-2-2.05Z"/><path class="cls-14" d="M704.63,202.71a1.55,1.55,0,1,1,1.51-1.55,1.54,1.54,0,0,1-1.51,1.55Z"/><path class="cls-13" d="M704.63,200.11a1,1,0,1,1-1,1,1,1,0,0,1,1-1m0-1a2.05,2.05,0,1,0,2,2,2,2,0,0,0-2-2Z"/><path class="cls-13" d="M717.65,253.29a6.22,6.22,0,0,1-1.89-.26l.29-.95c2.56.8,6.87-.57,10.49-3.34a18.53,18.53,0,0,0,7.51-15,19.44,19.44,0,0,0-7.41-15.16c-3.51-2.8-7.75-4.22-10.56-3.53l-.23-1c3.14-.77,7.61.7,11.39,3.73A20.39,20.39,0,0,1,735,233.74a19.62,19.62,0,0,1-7.9,15.8c-3.09,2.36-6.7,3.75-9.48,3.75Z"/><rect class="cls-13" x="708.2" y="232.72" width="26.12" height="1.24"/><path class="cls-16" d="M756.38,152.59a2.19,2.19,0,0,0,2.11,2.27h42.62a2.27,2.27,0,0,0,0-4.53H758.49a2.19,2.19,0,0,0-2.11,2.26Z"/><path class="cls-13" d="M801.11,155.27H758.49a3.1,3.1,0,0,1,0-6.18h42.62a3.1,3.1,0,0,1,0,6.18Zm-42.62-4.53a1.44,1.44,0,0,0,0,2.88h42.62a1.44,1.44,0,0,0,0-2.88Z"/><path class="cls-16" d="M804.16,140.65a2.2,2.2,0,0,0-2.11-2.27H759.42a2.27,2.27,0,0,0,0,4.53h42.63a2.19,2.19,0,0,0,2.1-2.26Z"/><path class="cls-13" d="M802.05,143.32H759.43a3.1,3.1,0,0,1,0-6.18h42.62a3.1,3.1,0,0,1,0,6.18Zm-42.62-4.53a1.45,1.45,0,0,0,0,2.89h42.62a1.45,1.45,0,0,0,0-2.89H759.43Z"/><polygon class="cls-16" points="813.39 110.83 826.92 159.06 819.42 161.27 805.89 113.04 813.39 110.83"/><polygon class="cls-13" points="807.62 111.39 821.14 159.61 817.4 160.72 803.87 112.49 807.62 111.39"/><path class="cls-14" d="M848,200.78a2.5,2.5,0,0,1,.91-3.37,2.37,2.37,0,0,1,3.28.94L860.29,213a2.5,2.5,0,0,1-.91,3.37,2.37,2.37,0,0,1-3.28-.94L848,200.79Z"/><path class="cls-13" d="M858.2,217.23a2.89,2.89,0,0,1-2.52-1.51L847.56,201a3,3,0,0,1-.27-2.26,2.93,2.93,0,0,1,1.36-1.79,2.84,2.84,0,0,1,4,1.12l8.12,14.69a3,3,0,0,1-1.09,4.05,2.9,2.9,0,0,1-1.43.39Zm-8.13-19.64a1.85,1.85,0,0,0-.94.26,2,2,0,0,0-.91,1.19,2,2,0,0,0,.18,1.49l8.12,14.7a1.93,1.93,0,0,0,1.68,1,1.85,1.85,0,0,0,.94-.26,2,2,0,0,0,.73-2.69l-8.12-14.69a1.91,1.91,0,0,0-1.68-1Z"/><path class="cls-14" d="M846.75,208.59a2.51,2.51,0,0,1,.91-3.36,2.38,2.38,0,0,1,3.29.93l8.12,14.69a2.51,2.51,0,0,1-.91,3.37,2.39,2.39,0,0,1-3.29-.93l-8.12-14.7Z"/><path class="cls-13" d="M857,225a2.89,2.89,0,0,1-2.52-1.51l-8.12-14.69a3,3,0,0,1,1.1-4.05,2.86,2.86,0,0,1,1.42-.39,2.9,2.9,0,0,1,2.53,1.51l8.11,14.69a3,3,0,0,1,.27,2.26,2.9,2.9,0,0,1-1.36,1.79A2.83,2.83,0,0,1,857,225Zm-8.12-19.64a1.85,1.85,0,0,0-.94.26,2,2,0,0,0-.73,2.68L855.3,223a1.93,1.93,0,0,0,1.67,1,1.89,1.89,0,0,0,.95-.26,2,2,0,0,0,.91-1.19,2.06,2.06,0,0,0-.18-1.5l-8.12-14.69a1.94,1.94,0,0,0-1.68-1Z"/><path class="cls-14" d="M838,213.66a2.49,2.49,0,0,1,.91-3.36,2.36,2.36,0,0,1,3.28.93l8.12,14.69a2.5,2.5,0,0,1-.91,3.37,2.38,2.38,0,0,1-3.28-.93L838,213.66Z"/><path class="cls-13" d="M848.23,230.11a2.88,2.88,0,0,1-2.52-1.5l-8.12-14.7a3,3,0,0,1,1.1-4,2.74,2.74,0,0,1,1.42-.39,2.92,2.92,0,0,1,2.53,1.51l8.11,14.69a2.94,2.94,0,0,1-2.52,4.43Zm-8.12-19.63a1.84,1.84,0,0,0-.94.25,2,2,0,0,0-.73,2.69l8.12,14.69a1.91,1.91,0,0,0,1.68,1,2,2,0,0,0,.94-.25,2,2,0,0,0,.73-2.69l-8.12-14.69a2,2,0,0,0-1.68-1Z"/><path class="cls-14" d="M843.23,212.83a2.65,2.65,0,0,1,1.23-3.38,2.39,2.39,0,0,1,3.29.93l8.11,14.7a2.49,2.49,0,0,1-.91,3.36,2.36,2.36,0,0,1-3.28-.93l-8.43-14.68Z"/><path class="cls-13" d="M853.77,229.26a2.88,2.88,0,0,1-2.52-1.5l-8.43-14.68a3.14,3.14,0,0,1,1.4-4.06,2.8,2.8,0,0,1,1.43-.39,2.89,2.89,0,0,1,2.52,1.51l8.12,14.69a3,3,0,0,1,.27,2.26,2.91,2.91,0,0,1-2.79,2.18Zm-8.12-19.63a1.89,1.89,0,0,0-.95.26,2.14,2.14,0,0,0-1,2.69l8.43,14.68a1.93,1.93,0,0,0,1.68,1,1.85,1.85,0,0,0,.94-.26,2,2,0,0,0,.91-1.19,2,2,0,0,0-.18-1.5l-8.12-14.69a1.92,1.92,0,0,0-1.67-1Z"/><path class="cls-14" d="M829.5,200.76a3,3,0,0,1,1.11-4.09l13.08-7.6a2.9,2.9,0,0,1,4,1.14s1.53.51,3.36,3.83a56.9,56.9,0,0,1,3.45,8.5c2,5-15.19,12.28-15.19,12.28-1.41.82-2.18-.28-3-1.73l-6.81-12.33Z"/><path class="cls-13" d="M838.4,215.6c-1.16,0-1.88-1.12-2.51-2.26L829.08,201a3.59,3.59,0,0,1-.32-2.67,3.43,3.43,0,0,1,1.61-2.11l13.08-7.59a3.32,3.32,0,0,1,1.68-.46,3.42,3.42,0,0,1,2.89,1.63c.5.24,1.87,1.12,3.44,4a56.57,56.57,0,0,1,3.5,8.6c2.07,5.2-13.52,12.05-15.45,12.88a2.22,2.22,0,0,1-1.11.32Zm6.73-26.42a2.31,2.31,0,0,0-1.2.33l-13.08,7.59a2.53,2.53,0,0,0-.92,3.41l6.81,12.34c.6,1.08,1.08,1.75,1.65,1.75a1.32,1.32,0,0,0,.67-.22l.05,0c4.65-2,16.4-7.94,14.93-11.63a56.87,56.87,0,0,0-3.43-8.45c-1.68-3.05-3.07-3.6-3.09-3.6l-.17-.06-.09-.17a2.46,2.46,0,0,0-2.13-1.27Z"/><path class="cls-14" d="M825.46,202.64c2.52,8.1,8.6,15.55,8.6,15.55a2.89,2.89,0,0,0,4,1.14l.14-.09a3,3,0,0,0,1.11-4.09l-3.9-7.06s9-6.53,5.26-12.31l-3.31-.05a2.9,2.9,0,0,0-4-1.13l-6.78,3.94c-1.41.81-1,2-1.11,4.09Z"/><path class="cls-13" d="M836.61,220.22a3.43,3.43,0,0,1-3-1.74c-.45-.57-6.22-7.87-8.65-15.69l0-.09v-.09c0-.49,0-.93,0-1.32,0-1.35,0-2.41,1.33-3.18l6.78-3.94a3.35,3.35,0,0,1,4.51,1.07l3.3,0,.15.22c3.51,5.5-3.34,11.39-5,12.73l3.68,6.67a3.56,3.56,0,0,1-1.28,4.78l-.15.08a3.38,3.38,0,0,1-1.69.46ZM826,202.57c2.48,7.88,8.42,15.23,8.48,15.3l.05.08a2.4,2.4,0,0,0,3.33.94l.14-.08a2.54,2.54,0,0,0,.92-3.42l-4.11-7.45.35-.26c.09-.06,8.3-6.15,5.27-11.41l-3.32,0-.14-.25a2.45,2.45,0,0,0-2.13-1.27,2.33,2.33,0,0,0-1.2.33L826.81,199c-.8.46-.84.92-.83,2.31,0,.38,0,.8,0,1.28Z"/><path class="cls-14" d="M711.77,95a2.5,2.5,0,0,1-.91,3.37,2.38,2.38,0,0,1-3.28-.93l-8.12-14.69a2.51,2.51,0,0,1,.91-3.37,2.38,2.38,0,0,1,3.29.93l8.11,14.7Z"/><path class="cls-13" d="M709.68,99.23a2.88,2.88,0,0,1-2.52-1.5L699,83a3,3,0,0,1,1.09-4,2.87,2.87,0,0,1,4,1.12l8.12,14.7a3,3,0,0,1,.27,2.25,3,3,0,0,1-1.36,1.8,3,3,0,0,1-1.43.38ZM701.56,79.6a1.88,1.88,0,0,0-.95.25,2,2,0,0,0-.72,2.69L708,97.23a1.91,1.91,0,0,0,1.67,1,1.89,1.89,0,0,0,1-.26,2,2,0,0,0,.9-1.19,2,2,0,0,0-.18-1.49L703.23,80.6a1.9,1.9,0,0,0-1.67-1Z"/><path class="cls-14" d="M713,87.23a2.5,2.5,0,0,1-.91,3.37,2.37,2.37,0,0,1-3.28-.93L700.69,75a2.5,2.5,0,0,1,.91-3.37,2.37,2.37,0,0,1,3.28.93L713,87.23Z"/><path class="cls-13" d="M710.91,91.42a2.89,2.89,0,0,1-2.53-1.5l-8.12-14.7a3,3,0,0,1,1.1-4,2.85,2.85,0,0,1,1.42-.38,2.89,2.89,0,0,1,2.53,1.5L713.43,87a3,3,0,0,1,.27,2.25,3,3,0,0,1-1.37,1.8,2.88,2.88,0,0,1-1.42.38Zm-8.13-19.63a1.87,1.87,0,0,0-.94.25,2,2,0,0,0-.73,2.69l8.12,14.69a1.91,1.91,0,0,0,1.68,1,1.85,1.85,0,0,0,.94-.26,1.93,1.93,0,0,0,.91-1.18,2.06,2.06,0,0,0-.18-1.5l-8.12-14.69a1.92,1.92,0,0,0-1.67-1Z"/><path class="cls-14" d="M721.74,82.16a2.5,2.5,0,0,1-.91,3.37,2.39,2.39,0,0,1-3.29-.94L709.43,69.9a2.5,2.5,0,0,1,.91-3.37,2.37,2.37,0,0,1,3.28.94l8.12,14.69Z"/><path class="cls-13" d="M719.64,86.35a2.89,2.89,0,0,1-2.52-1.51L709,70.15a3,3,0,0,1,1.1-4.05,2.83,2.83,0,0,1,1.42-.39,2.92,2.92,0,0,1,2.53,1.51l8.11,14.69a3,3,0,0,1,.27,2.26A2.93,2.93,0,0,1,721.07,86a2.76,2.76,0,0,1-1.42.39Zm-8.12-19.64a1.85,1.85,0,0,0-.94.26,2,2,0,0,0-.73,2.69L718,84.35a1.91,1.91,0,0,0,1.67,1,1.93,1.93,0,0,0,1.85-1.45,1.94,1.94,0,0,0-.18-1.49l-8.11-14.7a1.93,1.93,0,0,0-1.68-1Z"/><path class="cls-14" d="M716.52,83a2.62,2.62,0,0,1-1.23,3.37,2.37,2.37,0,0,1-3.28-.93l-8.12-14.69a2.51,2.51,0,0,1,.91-3.37,2.39,2.39,0,0,1,3.29.93L716.52,83Z"/><path class="cls-13" d="M714.11,87.2a2.89,2.89,0,0,1-2.52-1.51L703.47,71a3,3,0,0,1-.27-2.26A2.93,2.93,0,0,1,704.56,67a2.8,2.8,0,0,1,1.43-.39,2.89,2.89,0,0,1,2.52,1.51l8.43,14.67a3.16,3.16,0,0,1-1.41,4.07,2.83,2.83,0,0,1-1.42.39ZM706,67.56a2,2,0,0,0-1.67,2.94l8.11,14.69a1.94,1.94,0,0,0,1.68,1,1.81,1.81,0,0,0,.94-.25,2.14,2.14,0,0,0,1.05-2.7l-8.43-14.67a1.93,1.93,0,0,0-1.68-1Z"/><path class="cls-14" d="M730.26,95.06a3.06,3.06,0,0,1-1.11,4.1l-13.08,7.59a2.89,2.89,0,0,1-4-1.13s-1.53-.51-3.36-3.83a57.37,57.37,0,0,1-3.46-8.51c-2-5,15.2-12.27,15.2-12.27,1.41-.82,2.18.28,3,1.72l6.82,12.33Z"/><path class="cls-13" d="M714.63,107.64a3.41,3.41,0,0,1-2.89-1.62c-.5-.25-1.87-1.13-3.44-4a56.62,56.62,0,0,1-3.5-8.59c-2.08-5.21,13.52-12.06,15.45-12.88a2.24,2.24,0,0,1,1.11-.33c1.16,0,1.87,1.11,2.5,2.25l6.82,12.34a3.55,3.55,0,0,1-1.29,4.77l-13.08,7.6a3.41,3.41,0,0,1-1.68.45Zm6.73-26.41a1.39,1.39,0,0,0-.66.21l-.05,0c-4.65,2-16.4,7.94-14.93,11.63a56.93,56.93,0,0,0,3.43,8.44c1.68,3.06,3.07,3.6,3.09,3.6l.17.07.09.16a2.42,2.42,0,0,0,3.33.95l13.08-7.6a2.53,2.53,0,0,0,.92-3.41L723,83c-.61-1.08-1.1-1.75-1.67-1.75Z"/><path class="cls-14" d="M734.3,93.19c-2.52-8.11-8.6-15.56-8.6-15.56a2.89,2.89,0,0,0-4-1.13l-.15.08a3.05,3.05,0,0,0-1.1,4.1l3.9,7.06s-9,6.53-5.26,12.31l3.31,0a2.9,2.9,0,0,0,4,1.13l6.78-3.94c1.41-.81,1-1.94,1.11-4.08Z"/><path class="cls-13" d="M725,102.11a3.41,3.41,0,0,1-2.82-1.52l-3.31,0-.14-.22c-3.52-5.49,3.34-11.39,5-12.72L720,80.92a3.55,3.55,0,0,1,1.29-4.77l.15-.09a3.31,3.31,0,0,1,1.68-.45,3.4,3.4,0,0,1,3,1.74c.46.56,6.22,7.86,8.66,15.69l0,.09v.09c0,.48,0,.92,0,1.31,0,1.35,0,2.42-1.32,3.19l-6.79,3.94a3.41,3.41,0,0,1-1.68.45Zm-5.59-2.56,3.33,0,.14.25a2.42,2.42,0,0,0,3.33,1l6.78-4c.8-.46.83-.92.83-2.31,0-.38,0-.8,0-1.28-2.48-7.88-8.42-15.23-8.48-15.3l-.05-.08a2.4,2.4,0,0,0-3.33-.94l-.15.08a2.55,2.55,0,0,0-.92,3.42L725,87.88l-.36.26c-.09.06-8.3,6.15-5.27,11.41Z"/><polygon class="cls-14" points="805.46 106.4 820.41 161.88 816.66 162.94 801.71 107.46 805.46 106.4"/><polygon class="cls-13" points="804.05 108.84 817.54 162.65 815.65 163.15 802.16 109.34 804.05 108.84"/><polygon class="cls-13" points="808.26 111.84 821.18 159.9 819.3 160.43 806.38 112.37 808.26 111.84"/><path class="cls-14" d="M789.9,162.27a1.87,1.87,0,1,1,1.83-1.87,1.85,1.85,0,0,1-1.83,1.87Z"/><path class="cls-13" d="M789.9,159a1.38,1.38,0,1,1-1.34,1.37A1.35,1.35,0,0,1,789.9,159m0-1a2.38,2.38,0,1,0,2.31,2.38A2.35,2.35,0,0,0,789.9,158Z"/><path class="cls-14" d="M780.15,162.27A1.87,1.87,0,1,1,782,160.4a1.85,1.85,0,0,1-1.83,1.87Z"/><path class="cls-13" d="M780.15,159a1.38,1.38,0,1,1-1.34,1.37,1.35,1.35,0,0,1,1.34-1.37m0-1a2.38,2.38,0,1,0,2.32,2.38,2.35,2.35,0,0,0-2.32-2.38Z"/><path class="cls-14" d="M770.4,162.27a1.87,1.87,0,1,1,1.82-1.87,1.85,1.85,0,0,1-1.82,1.87Z"/><path class="cls-13" d="M770.4,159a1.38,1.38,0,1,1-1.34,1.37A1.36,1.36,0,0,1,770.4,159m0-1a2.38,2.38,0,1,0,2.31,2.38A2.33,2.33,0,0,0,770.4,158Z"/><path class="cls-14" d="M780.15,170.77A1.88,1.88,0,1,1,782,168.9a1.85,1.85,0,0,1-1.83,1.87Z"/><path class="cls-13" d="M780.15,167.52a1.38,1.38,0,1,1-1.34,1.38,1.36,1.36,0,0,1,1.34-1.38m0-1a2.38,2.38,0,1,0,2.32,2.38,2.35,2.35,0,0,0-2.32-2.38Z"/><path class="cls-14" d="M770.4,170.77a1.88,1.88,0,1,1,1.82-1.87,1.85,1.85,0,0,1-1.82,1.87Z"/><path class="cls-13" d="M770.4,167.52a1.38,1.38,0,1,1-1.34,1.38,1.37,1.37,0,0,1,1.34-1.38m0-1a2.38,2.38,0,1,0,2.31,2.38,2.35,2.35,0,0,0-2.31-2.38Z"/><path class="cls-14" d="M770.4,179.27a1.88,1.88,0,1,1,1.82-1.88,1.85,1.85,0,0,1-1.82,1.88Z"/><path class="cls-13" d="M770.4,176a1.38,1.38,0,1,1-1.34,1.37A1.37,1.37,0,0,1,770.4,176m0-1a2.38,2.38,0,1,0,2.31,2.37A2.35,2.35,0,0,0,770.4,175Z"/><path class="cls-12" d="M724.86,144.82a344.6,344.6,0,0,0,32.8-61.32c-1.62-.71-44.91,4.8-61.8,24.53-.12,6.79,0,14.63,0,15.59-.11,9.87-.75,66-.3,74.87,31.63,18.41,64.06,10.59,65.69,9.88-17.59-42.84-36.37-63.55-36.37-63.55Z"/><path class="cls-13" d="M741.68,210.88h0c-11.6,0-29.07-2-46.39-12.08l-.23-.07v-.25c-.45-8.79.17-63.92.3-74.88,0-.24,0-.88,0-1.83,0-3-.07-8.63,0-13.75v-.19l.11-.13c8.53-10,23.56-16.07,34.67-19.44,12.26-3.71,23.72-5.32,26.87-5.32a2.05,2.05,0,0,1,.82.1l.45.19-.19.46a350.38,350.38,0,0,1-32.63,61.09c2.36,2.73,19.91,23.72,36.19,63.39l.19.46-.44.08c-.66.28-8.12,2.17-19.74,2.17ZM696,198.16a91.53,91.53,0,0,0,45.67,11.9h0a77.92,77.92,0,0,0,18.88-2c-17.29-41.93-35.88-62.68-36.07-62.88l-.27-.3.23-.32A347.78,347.78,0,0,0,757,83.94c-4.45.06-44.27,5.4-60.61,24.28-.09,5.06,0,10.57,0,13.55,0,1,0,1.6,0,1.84-.13,10.85-.74,65-.32,74.55Z"/><path class="cls-12" d="M834.12,151.05a357.42,357.42,0,0,0-32.81,63c1.63.73,44.91-4.94,61.8-25.21.13-7,0-15,0-16,.12-10.14.76-67.84.31-76.92C831.8,77,799.37,85,797.75,85.75c17.58,44,36.36,65.3,36.36,65.3Z"/><path class="cls-13" d="M802,214.59h0a2,2,0,0,1-.83-.09l-.44-.19.18-.44a363.34,363.34,0,0,1,32.64-62.79c-2.32-2.74-19.89-24.31-36.2-65.14l-.18-.45.44-.19c.65-.3,8.11-2.36,19.73-2.36a90.66,90.66,0,0,1,46.4,12.54l.23.13v.27c.45,9-.18,65.7-.31,77,0,.25,0,.91,0,1.89,0,3.1.07,8.87,0,14.13V189l-.11.14c-8.53,10.23-23.56,16.49-34.67,19.95C816.56,213,805.1,214.6,802,214.6ZM798.4,86.06c17.29,43.08,35.89,64.44,36.08,64.65l.26.3-.22.33A359.72,359.72,0,0,0,802,213.62c4.4-.06,44.26-5.53,60.61-25,.09-5.21,0-10.88,0-13.94,0-1,0-1.65,0-1.9.13-11.15.74-66.81.32-76.62a89.75,89.75,0,0,0-45.68-12.27,75.06,75.06,0,0,0-18.89,2.13Z"/><polygon class="cls-11" points="695.63 134.51 716.88 133.83 741.2 120.36 753.52 95.13 744.44 95.13 715.95 105.11 695.95 118.19 695.63 134.51"/><path class="cls-11" d="M805.8,96.52c55-.75,58.4,43.89,58.4,43.89l-15.6,9.66s-8.49-15.78-17.75-22S809,110.76,809,110.76s-7.6-13.15-3.15-14.24Z"/><path class="cls-16" d="M862.82,136.3c-7.89-21.54-22.88-31.09-34.07-35.31a61.55,61.55,0,0,0-22.6-4l-.08-1.49a61.69,61.69,0,0,1,23.19,4.12c11.47,4.33,26.84,14.12,34.93,36.2l-1.37.52Z"/><path class="cls-13" d="M863.47,134.36c-6-16.26-17.05-27.69-32.78-34a69.84,69.84,0,0,0-26.14-4.93l-.06-2.49A72,72,0,0,1,831.58,98c16.39,6.57,27.89,18.49,34.17,35.43l-2.28.89Z"/><path class="cls-16" d="M849.74,150.75C838,127.25,816.05,116,807.17,112.24l.56-1.38c9,3.81,31.34,15.26,43.31,39.2l-1.31.69Z"/><path class="cls-13" d="M848.2,151.87c-15.79-27.46-42.76-38.18-43-38.29l.86-2.33c.28.1,28,11.11,44.27,39.35l-2.1,1.27Z"/><path class="cls-13" d="M850.91,150.1c-10.36-24.6-44.17-39.57-44.51-39.71l.38-.92c.35.15,34.51,15.27,45,40.24l-.9.39Z"/><path class="cls-13" d="M863.05,138.21c-7.74-21.69-22.75-31.65-34-36.19a63.76,63.76,0,0,0-22.82-4.72l0-1a64.6,64.6,0,0,1,23.16,4.76c11.44,4.62,26.72,14.74,34.59,36.79l-.92.35Z"/><path class="cls-14" d="M849.51,132.33h-.22a2.51,2.51,0,0,1-1.74-.92,2.66,2.66,0,0,1-.59-1.92,2.59,2.59,0,0,1,2.55-2.39h.22a2.63,2.63,0,0,1-.22,5.25Z"/><path class="cls-13" d="M849.5,127.58h.18a2.13,2.13,0,0,1-.17,4.24h-.18a2,2,0,0,1-1.41-.74,2.13,2.13,0,0,1-.48-1.55,2.1,2.1,0,0,1,2.06-2m0-1a3.13,3.13,0,0,0-.25,6.24h.26a3.12,3.12,0,0,0,.26-6.23h-.27Z"/><path class="cls-14" d="M827.7,112.35h-.22a2.62,2.62,0,0,1,.21-5.23h.22a2.63,2.63,0,0,1-.21,5.24Z"/><path class="cls-13" d="M827.69,107.61h.18a2.13,2.13,0,0,1-.17,4.24h-.18a2.13,2.13,0,0,1,.17-4.24m0-1a3.07,3.07,0,0,0-3,2.85,3.11,3.11,0,0,0,2.77,3.38h.27a3.07,3.07,0,0,0,3-2.85,3.11,3.11,0,0,0-2.77-3.38,1.23,1.23,0,0,0-.27,0Z"/><path class="cls-14" d="M816.82,107.89h-.22a2.63,2.63,0,0,1,.21-5.24H817a2.63,2.63,0,0,1-.22,5.24Z"/><path class="cls-13" d="M816.81,103.14H817a2.13,2.13,0,0,1-.17,4.24h-.18a2.13,2.13,0,0,1,.17-4.24m0-1a3.12,3.12,0,0,0-.25,6.23l.26,0a3.13,3.13,0,0,0,.26-6.24h-.27Z"/><path class="cls-14" d="M855.52,142.39h-.22a2.62,2.62,0,0,1,.21-5.23h.22a2.63,2.63,0,0,1-.21,5.24Z"/><path class="cls-13" d="M855.51,137.64h.18a2.13,2.13,0,0,1-.17,4.24h-.18a2.13,2.13,0,0,1,.17-4.24m0-1a3.13,3.13,0,0,0-.26,6.24h.27a3.12,3.12,0,0,0,.26-6.23l-.27,0Z"/><path class="cls-14" d="M860.51,152.86h-.22a2.63,2.63,0,0,1,.22-5.24h.22a2.62,2.62,0,0,1-.22,5.23Z"/><path class="cls-13" d="M860.51,148.11h.18a2.13,2.13,0,0,1-.18,4.24h-.18a2.13,2.13,0,0,1,.18-4.24m0-1a3.13,3.13,0,0,0-.26,6.24h.27a3.13,3.13,0,0,0,.25-6.24h-.26Z"/><path class="cls-16" d="M839.29,125.63a4.52,4.52,0,0,1-.52,0,5.92,5.92,0,0,1-4.1-2.18,6.24,6.24,0,0,1-1.39-4.5,6.13,6.13,0,0,1,6-5.66l.52,0a6.18,6.18,0,0,1-.51,12.33Z"/><path class="cls-13" d="M839.28,114.27l.44,0a5.19,5.19,0,0,1-.43,10.35l-.44,0a5,5,0,0,1-3.43-1.83,5.21,5.21,0,0,1-1.17-3.78,5.14,5.14,0,0,1,5-4.74m0-2a7.19,7.19,0,0,0-.59,14.33,6.08,6.08,0,0,0,.61,0,7.19,7.19,0,0,0,.59-14.34l-.61,0Z"/><path class="cls-11" d="M756,199.49c-55,.76-59.49-45.22-59.49-45.22l16.69-8.33s8.49,15.78,17.75,22,21.9,17.28,21.9,17.28,7.6,13.15,3.15,14.24Z"/><path class="cls-16" d="M756.27,201.13a68.41,68.41,0,0,1-24.76-5.36c-12.25-5.15-28.51-16.42-36.37-40.86l1.39-.47c7.68,23.9,23.57,34.91,35.54,39.94a65.84,65.84,0,0,0,24.38,5.25l0,1.5Z"/><path class="cls-13" d="M756,203.09c-12.27,0-46.92-3.74-62-44l2.27-.9c15.11,40.28,50.51,42.63,61,42.39l0,2.5-1.3,0Z"/><path class="cls-16" d="M754,185.16c-9-3.81-31.34-15.27-43.32-39.21l1.3-.68c11.76,23.5,33.69,34.75,42.57,38.5l-.55,1.39Z"/><path class="cls-13" d="M755.73,184.77c-.28-.11-28-11.12-44.27-39.36l2.1-1.27c15.79,27.46,42.76,38.18,43,38.29l-.86,2.33Z"/><path class="cls-13" d="M755,186.55c-.35-.15-34.51-15.28-45-40.25l.9-.39c10.36,24.6,44.17,39.57,44.51,39.72l-.38.91Z"/><path class="cls-13" d="M755.9,199.78a66.77,66.77,0,0,1-24.12-5.25c-11.93-5-27.76-16-35.42-39.85l.92-.31c7.55,23.46,23.13,34.29,34.87,39.23a65,65,0,0,0,23.92,5.18l0,1h-.19Z"/><path class="cls-14" d="M712.26,169.28c-.08,0-.15-.18-.23-.19a2.69,2.69,0,0,1-2.33-2.92,2.65,2.65,0,0,1,2.55-2.45h.22a2.51,2.51,0,0,1,1.74.92,3.05,3.05,0,0,1,.59,2.08,2.76,2.76,0,0,1-2.54,2.57Z"/><path class="cls-13" d="M712.25,164.18h.18a2,2,0,0,1,1.41.75,2.2,2.2,0,0,1,.48,1.55,2.11,2.11,0,0,1-2.07,1.94h-.18a2.13,2.13,0,0,1,.18-4.24m0-1a3.13,3.13,0,0,0-.25,6.24h.26a3.13,3.13,0,0,0,.26-6.24Z"/><path class="cls-14" d="M734.07,188.91h-.22a2.63,2.63,0,0,1,.21-5.24h.22a2.62,2.62,0,0,1-.21,5.23Z"/><path class="cls-13" d="M734.06,184.16h.18a2.13,2.13,0,0,1-.17,4.25h-.18a2.13,2.13,0,0,1,.17-4.25m0-1a3.12,3.12,0,0,0-.25,6.23h.26a3.07,3.07,0,0,0,3-2.85,3.1,3.1,0,0,0-2.77-3.38l-.27,0Z"/><path class="cls-14" d="M745,193.38h-.22a2.63,2.63,0,0,1,.21-5.24h.23a2.62,2.62,0,0,1-.22,5.23Z"/><path class="cls-13" d="M744.94,188.63h.18a2.13,2.13,0,0,1-.17,4.24h-.18a2.13,2.13,0,0,1,.17-4.24m0-1a3.13,3.13,0,0,0-.26,6.24H745a3.13,3.13,0,0,0,.26-6.24Z"/><path class="cls-14" d="M706.25,158.87H706a2.63,2.63,0,0,1,.21-5.24h.22a2.63,2.63,0,0,1-.21,5.24Z"/><path class="cls-13" d="M706.24,154.12h.18a2.13,2.13,0,0,1-.17,4.24h-.18a2.13,2.13,0,0,1,.17-4.24m0-1a3.13,3.13,0,0,0-.26,6.23l.27,0a3.13,3.13,0,0,0,.25-6.24l-.26,0Z"/><path class="cls-14" d="M701.25,148.4H701a2.63,2.63,0,0,1,.22-5.24h.22a2.63,2.63,0,0,1-.22,5.24Z"/><path class="cls-13" d="M701.25,143.65h.18a2.13,2.13,0,0,1-.17,4.24h-.18a2.13,2.13,0,0,1,.17-4.24m0-1a3.13,3.13,0,0,0-.26,6.24h.27a3.13,3.13,0,0,0,.25-6.24Z"/><path class="cls-16" d="M722.48,182.87a5.16,5.16,0,0,1-.52-.09,6.22,6.22,0,0,1,.51-12.39,4.52,4.52,0,0,1,.52,0,5.94,5.94,0,0,1,4.1,2.17,6.42,6.42,0,0,1,1.39,4.58,6.17,6.17,0,0,1-6,5.71Z"/><path class="cls-13" d="M722.47,171.38a3.31,3.31,0,0,1,.44,0,5,5,0,0,1,3.43,1.82,5.21,5.21,0,0,1,1.17,3.78,5.13,5.13,0,0,1-5,4.74l-.44,0a5.19,5.19,0,0,1,.42-10.34m0-2a7.19,7.19,0,0,0-.59,14.33l.61,0a7.19,7.19,0,0,0,.59-14.33c-.2,0-.41,0-.61,0Z"/><polygon class="cls-11" points="864.15 160.99 841.77 161.67 816.15 175.25 803.18 200.59 812.74 200.59 842.74 190.5 863.81 177.36 864.15 160.99"/><path class="cls-13" d="M813,183.24l-.73-.66a61.12,61.12,0,0,1,33.59-20c10.05-2.19,17.77-1.33,18.31-1l-.22.45-.18.46c-.53-.17-8-1.06-18.05,1.19A60.2,60.2,0,0,0,813,183.24Z"/><path class="cls-16" d="M814.57,180.27l-1.07-1a60.15,60.15,0,0,1,33.2-18.39,57.91,57.91,0,0,1,17.23-.93l-.19,1.49c-.29,0-28.63-3.58-49.17,18.85Z"/><path class="cls-13" d="M816,177.25l-1.73-1.76a60.45,60.45,0,0,1,32.9-17.34,58,58,0,0,1,16.87-.72l-.34,2.48c-.27,0-27.39-3.63-47.7,17.34Z"/><path class="cls-11" d="M816.48,174.78,813.71,172c21.45-22.15,49.22-18.44,50.39-18.27l-.54,4c-.26,0-27-3.56-47.08,17.13Z"/><path class="cls-13" d="M816.13,172.93l-2.07-2.11a60.59,60.59,0,0,1,33-17.41,58.17,58.17,0,0,1,16.95-.72l-.41,3c-.34,0-27.3-3.58-47.5,17.27Zm47.5-17.25h0l.2-1.48-.2,1.48Z"/><path class="cls-12" d="M816.48,170.29l-2.77-2.82c21.45-22.16,49.22-18.44,50.39-18.27l-.54,4c-.26,0-27-3.57-47.08,17.13Z"/><path class="cls-13" d="M831.09,156l-3.87-7.51.91-.48a65.25,65.25,0,0,1,36.28-7l-1.15,8.41.57-4.2-.56,4.21a57.85,57.85,0,0,0-31.39,6.15l-.79.42Z"/><path class="cls-16" d="M804.51,200.23c-1,0-2,0-2.93-.08l.08-1.5c27.35,1.51,56.3-19,61.63-24.69l1.05,1c-5.23,5.55-32.86,25.23-59.83,25.23Z"/><path class="cls-13" d="M801.76,202.84l-1.71,0,.05-2.5,1.67,0c34,0,61.51-24.15,61.8-24.4l1.59,1.89a109,109,0,0,1-19,12.81c-10.4,5.62-26.42,12.2-44.38,12.2Z"/><path class="cls-13" d="M805.09,198.62l0-1c29.49-.42,58-24.49,58.32-24.73l.62.76c-.28.25-29.1,24.55-58.92,25Z"/><path class="cls-14" d="M822.63,182.33a1.88,1.88,0,1,1,2-1.88,1.91,1.91,0,0,1-2,1.88Z"/><path class="cls-13" d="M822.63,179.08a1.38,1.38,0,1,1-1.47,1.38,1.42,1.42,0,0,1,1.47-1.38m0-1a2.38,2.38,0,1,0,2.44,2.37,2.4,2.4,0,0,0-2.44-2.37Z"/><path class="cls-14" d="M851.38,177.83a1.88,1.88,0,1,1,2-1.88,1.91,1.91,0,0,1-2,1.88Z"/><path class="cls-13" d="M851.38,174.58a1.38,1.38,0,1,1-1.46,1.38,1.42,1.42,0,0,1,1.46-1.38m0-1a2.38,2.38,0,1,0,2.44,2.37,2.4,2.4,0,0,0-2.44-2.37Z"/><path class="cls-14" d="M826.22,190.32a1.87,1.87,0,1,1,1.95-1.87,1.91,1.91,0,0,1-1.95,1.87Z"/><path class="cls-13" d="M826.22,187.08a1.38,1.38,0,1,1-1.46,1.37,1.41,1.41,0,0,1,1.46-1.37m0-1a2.38,2.38,0,1,0,2.44,2.38,2.41,2.41,0,0,0-2.44-2.38Z"/><path class="cls-14" d="M848.3,169.83a1.88,1.88,0,1,1,2-1.87,1.92,1.92,0,0,1-2,1.87Z"/><path class="cls-13" d="M848.3,166.59a1.38,1.38,0,1,1-1.46,1.37,1.42,1.42,0,0,1,1.46-1.37m0-1a2.38,2.38,0,1,0,2.44,2.38,2.42,2.42,0,0,0-2.44-2.38Z"/><path class="cls-16" d="M836.57,185.06a6.18,6.18,0,1,1,6.4-6.18,6.3,6.3,0,0,1-6.4,6.18Z"/><path class="cls-13" d="M836.57,173.7a5.19,5.19,0,1,1-5.43,5.18,5.31,5.31,0,0,1,5.43-5.18m0-2a7.18,7.18,0,1,0,7.37,7.18,7.28,7.28,0,0,0-7.37-7.18Z"/><path class="cls-14" d="M788.16,227.2l2.19-.6,8-21s29.17-46,37.82-57.43c-13.41-13.9-34.87-62.82-34.87-62.82l-1.21,3.45-1.9.65c-.77,2.11-.19,2.94,2,3.79a6.16,6.16,0,0,0,3.11,9.75c-3,2.2-1,8.53,3.26,8.87-2.42,3.63-2.51,10.45,6.1,11.41-3.77,4,1.47,10.88,6,11-4.54,4.17-4.12,11.59,5.15,10.66,0,0-11.37,2.9-.68,9.64-1.11-.74-9.93,2-5.8,7.63-8.41.16-8.92,8.68-7.13,10.75-4.49-.33-6,2.75-3.67,6.86-6.32-1.08-9.19,4.47-5.71,9.27a5.15,5.15,0,0,0-5.58,8.36c-4.48.46,1.28,4.34,4.4,7.61-4.44.49-12.25,6.95-8.72,9.24-3.23.34-5.31,4.41-2.32,6.75-3,.28-2.31,4.72-.43,6.1Z"/><path class="cls-13" d="M788.06,227.74l-.19-.14a5.14,5.14,0,0,1-1.7-5,2.56,2.56,0,0,1,1.44-1.76,3.8,3.8,0,0,1-.81-3.57,4.83,4.83,0,0,1,3.1-3.21,2.28,2.28,0,0,1-.34-1.66c.42-2.79,5.17-6.47,8.73-7.51l.16-.26c-.51-.5-1.06-1-1.6-1.49-2.54-2.32-4.08-3.81-3.7-5a1.65,1.65,0,0,1,1.18-1,5.43,5.43,0,0,1-.57-5.38,5.75,5.75,0,0,1,6-3.41,6.53,6.53,0,0,1-.34-6c1.06-2.17,3.38-3.33,6.27-3.11-.85-1.89-.93-3.58-.22-4.84a4.31,4.31,0,0,1,3.87-1.93,8.1,8.1,0,0,1,.25-6,7.8,7.8,0,0,1,6.87-4.71,4.26,4.26,0,0,1-.3-4.12c1-2,3.56-3.21,5.35-3.56-2.51-1.85-3.65-3.61-3.4-5.26s1.65-2.65,3-3.35c-3.67-.35-5-2.31-5.41-3.52-.84-2.25-.06-5.08,1.93-7.31A9.57,9.57,0,0,1,811.4,129a5.64,5.64,0,0,1,.35-5.36c-4-.68-5.75-2.68-6.47-4.3a8.18,8.18,0,0,1,.51-7.12,6.09,6.09,0,0,1-4.16-4.44,5,5,0,0,1,.78-4.62,6.85,6.85,0,0,1-3.83-4.53,6.32,6.32,0,0,1,.85-5.19c-1.73-.8-2.5-1.84-1.65-4.17l.08-.23,1.9-.65L801.3,84l.5,1.13c.21.49,21.58,49,34.77,62.68l.3.31-.26.35c-7.71,10.15-31.6,47.63-36.9,56,.09.09.18.19.28.28l.7.74-1,.11a4.88,4.88,0,0,0-.79.14l-.06.1L790.72,227l-2.67.71Zm9.61-21.59c-3.26,1.29-6.85,4.42-7.15,6.41a1.27,1.27,0,0,0,.65,1.37l1.18.78-1.4.14a3.78,3.78,0,0,0-3.21,2.69,2.88,2.88,0,0,0,1.15,3.17l1,.78-1.25.11a1.6,1.6,0,0,0-1.53,1.27,4.21,4.21,0,0,0,1.16,3.78l1.72-.46,7.69-20ZM799,189.3a4.77,4.77,0,0,0-4.31,2.88,4.56,4.56,0,0,0,.94,5l.64.73-1,.1c-.81.09-1.15.28-1.19.43-.21.66,2,2.65,3.42,4l1.49,1.38h0c5.45-8.56,28.64-44.94,36.58-55.54-12.19-13-30.89-54.2-34.17-61.54l-.89,2.52-1.9.66c-.53,1.59-.16,2.16,1.78,2.93l.66.25-.47.55a5.25,5.25,0,0,0-1.06,4.81,5.93,5.93,0,0,0,4,4.13l.91.31-.79.57c-1.32,1-1.4,2.76-1,4.12a4.94,4.94,0,0,0,4.06,3.84l.84.07-.48.71a7.4,7.4,0,0,0-.82,6.79c1,2.14,3.23,3.47,6.57,3.85l1,.11-.69.73a4.58,4.58,0,0,0-.72,5c1.08,2.77,3.94,5.1,6.36,5.18l1.21,0-.9.83c-2.19,2-3.17,4.86-2.4,6.94s3.41,3.23,7.17,2.85l.17,1c-1.26.33-4.58,1.59-4.87,3.55-.22,1.47,1.27,3.25,4.31,5.17l-.5.87s-.09-.05-.35-.05c-1.35,0-4.51,1.1-5.5,3.12-.56,1.14-.32,2.43.7,3.83l.57.78-.95,0c-4.24.08-6.07,2.31-6.87,4.16-1,2.22-.71,4.82.1,5.76l.79.92-1.2-.09c-1.92-.14-3.26.36-3.86,1.41s-.39,2.82.66,4.7l.5.91-1-.17c-2.85-.48-5.2.46-6.17,2.46a5.9,5.9,0,0,0,.93,6l1,1.34-1.54-.58a5.33,5.33,0,0,0-1.68-.28Z"/><path class="cls-13" d="M700.63,134.33a20.38,20.38,0,0,1-5-.41l.47-.88-.24.44.19-.46c.51.17,7.63,1,17.13-1.2a56.58,56.58,0,0,0,31-19.54l.74.64a57.54,57.54,0,0,1-31.9,20,56.74,56.74,0,0,1-12.43,1.45Z"/><path class="cls-16" d="M700.63,135.84a37.15,37.15,0,0,1-4.8-.26l.2-1.49c.27,0,27.15,3.57,46.63-18.84l1.09,1a56.42,56.42,0,0,1-31.54,18.4,59.12,59.12,0,0,1-11.58,1.19Z"/><path class="cls-13" d="M701,138.37a36.5,36.5,0,0,1-5.27-.31l.36-2.47c.26,0,25.95,3.63,45.21-17.32l1.77,1.72a56.39,56.39,0,0,1-31.28,17.35,57.64,57.64,0,0,1-10.79,1Z"/><path class="cls-11" d="M701.21,142.14a41.22,41.22,0,0,1-5.57-.33l.58-4-.29,2,.28-2c.26,0,25.6,3.55,44.57-17.09l2.84,2.74a57.33,57.33,0,0,1-42.41,18.64Z"/><path class="cls-13" d="M701,143.12a38.72,38.72,0,0,1-5.3-.31l.43-3-.22,1.48.21-1.48c.26,0,25.84,3.59,45-17.25l2.13,2.06a56.68,56.68,0,0,1-31.42,17.43,58.91,58.91,0,0,1-10.84,1Z"/><path class="cls-12" d="M701.21,146.64a38.49,38.49,0,0,1-5.57-.34l.58-4-.29,2,.28-2c.26,0,25.6,3.55,44.57-17.09l2.84,2.74a57.31,57.31,0,0,1-42.41,18.63Z"/><path class="cls-13" d="M701.1,154.87a39.4,39.4,0,0,1-5.77-.35l1.2-8.4a52.2,52.2,0,0,0,37.17-11.23l.23-.19,5.19,6.62-.26.22a60,60,0,0,1-37.76,13.33Z"/><path class="cls-16" d="M696.49,121.53l-1.08-1c5.15-5.76,33.16-26.69,59.63-25.17l-.08,1.5c-26-1.51-53.42,19-58.48,24.68Z"/><path class="cls-13" d="M696.25,119.54l-1.65-1.84a103.17,103.17,0,0,1,18.08-12.83c10.2-5.8,26.07-12.63,43.81-12.18l-.06,2.49c-32.88-.8-59.91,24.11-60.18,24.36Z"/><path class="cls-14" d="M770.26,221.1c3-2.34.92-6.41-2.31-6.75-.94-1.31,1.65-7.42-2.79-7.91,3.13-3.28,3-8.48-1.53-8.94a5.16,5.16,0,0,0-5.59-8.36c3.49-4.8.62-10.35-5.71-9.27,2.29-4.11.83-7.19-3.66-6.85,1.78-2.08,1.27-10.59-7.13-10.76,4.12-5.65-4.69-8.37-5.8-7.63,10.69-6.74-.68-9.64-.68-9.64,9.27.93,9.69-6.49,5.14-10.66,4.51-.16,9.75-7.07,6-11,8.6-1,8.52-7.78,6.09-11.41,4.21-.34,6.29-6.67,3.26-8.87,4.57-1.55,5.71-6.78,3.11-9.75,2.17-.85,2.75-1.68,2-3.79,0,0-1.9-1.25-2-2.63,0-.68-.11-.16-.11-.16l-1-1.31s-21.46,48.92-34.87,62.82c8.65,11.41,37.82,57.43,37.82,57.43l8,21,2.19.6c1.89-1.38,2.6-5.81-.43-6.09Z"/><path class="cls-13" d="M770.8,227.74l-2.66-.72L760,205.85c-1-1.63-29.34-46.24-37.77-57.35l-.26-.35.3-.31c13.19-13.67,34.56-62.19,34.77-62.67l.33-.76L758.6,86c.45,0,.49.53.51.8.06.94,1.3,2,1.77,2.26l.14.09.06.15c.85,2.33.08,3.37-1.65,4.17a6.35,6.35,0,0,1,.85,5.2,6.83,6.83,0,0,1-3.84,4.52,5,5,0,0,1,.79,4.62,6.12,6.12,0,0,1-4.16,4.45,8.17,8.17,0,0,1,.51,7.12c-.72,1.61-2.44,3.61-6.47,4.29a5.65,5.65,0,0,1,.35,5.36,9.58,9.58,0,0,1-6.21,5.67c2,2.22,2.77,5.06,1.93,7.3-.45,1.21-1.74,3.17-5.41,3.52,1.35.7,2.77,1.8,3,3.35s-.89,3.42-3.4,5.26c1.79.36,4.36,1.54,5.35,3.56a4.26,4.26,0,0,1-.3,4.12,7.77,7.77,0,0,1,6.86,4.71,8.13,8.13,0,0,1,.26,6,4.31,4.31,0,0,1,3.87,1.93c.71,1.25.63,2.95-.22,4.83,2.89-.22,5.21,1,6.27,3.12a6.51,6.51,0,0,1-.34,6,5.75,5.75,0,0,1,6,3.41,5.45,5.45,0,0,1-.58,5.39,4.07,4.07,0,0,1,3,2.65,6.92,6.92,0,0,1-1.41,6.32c2.56.82,2.34,3.79,2.2,5.82a7.44,7.44,0,0,0,0,2,4.79,4.79,0,0,1,3.78,3.37,3.79,3.79,0,0,1-.8,3.58,2.57,2.57,0,0,1,1.44,1.76,5.13,5.13,0,0,1-1.71,5l-.19.14Zm-1.93-1.55,1.72.46a4.23,4.23,0,0,0,1.16-3.78,1.61,1.61,0,0,0-1.53-1.27l-1.25-.11,1-.78a2.89,2.89,0,0,0,1.15-3.17,3.82,3.82,0,0,0-3.22-2.69l-.21,0-.13-.18c-.41-.57-.34-1.55-.25-2.78.19-2.72.15-4.67-2.2-4.93l-1-.11.7-.74c1.66-1.74,2.39-4.18,1.76-5.94a3.26,3.26,0,0,0-3-2.15l-1-.1.65-.73a4.58,4.58,0,0,0,.94-5,4.66,4.66,0,0,0-6-2.56l-1.53.58,1-1.35a5.88,5.88,0,0,0,.94-6c-1-2-3.33-2.94-6.18-2.46l-1,.18.51-.92c1-1.88,1.28-3.59.66-4.69s-2-1.56-3.87-1.41l-1.19.09.79-.92c.81-.94,1.05-3.55.09-5.77-.79-1.85-2.63-4.07-6.86-4.16l-.95,0,.57-.78c1-1.39,1.25-2.68.7-3.82-1-2-4.16-3.13-5.51-3.13a.73.73,0,0,0-.34.05l-.53-.84h0c3.06-1.94,4.54-3.72,4.32-5.19-.3-2-3.62-3.22-4.87-3.54l.17-1c3.75.38,6.35-.66,7.16-2.85s-.21-4.93-2.39-6.93l-.9-.83,1.21,0c2.42-.08,5.28-2.4,6.36-5.18a4.62,4.62,0,0,0-.72-5l-.7-.73,1-.11c3.34-.38,5.62-1.71,6.58-3.84a7.42,7.42,0,0,0-.83-6.8l-.47-.71.84-.07a4.93,4.93,0,0,0,4-3.84c.37-1.36.29-3.16-1-4.12l-.78-.57.91-.31a5.93,5.93,0,0,0,4-4.13,5.28,5.28,0,0,0-1.06-4.81l-.47-.54.66-.26c2-.77,2.32-1.35,1.75-3A4.87,4.87,0,0,1,758.16,87l-.54-.71c-2.76,6.2-21.92,48.67-34.34,61.9,8.88,11.84,37.3,56.66,37.59,57.12l0,.09,8,20.73Z"/><path class="cls-13" d="M696.38,122.61l-.65-.75c.28-.25,27.64-24.56,56-25v1c-28,.41-55.08,24.48-55.35,24.72Z"/><path class="cls-14" d="M735.05,116.92a1.88,1.88,0,1,1,1.83-1.87,1.85,1.85,0,0,1-1.83,1.87Z"/><path class="cls-13" d="M735.05,113.68a1.37,1.37,0,1,1-1.34,1.37,1.37,1.37,0,0,1,1.34-1.38m0-1a2.38,2.38,0,1,0,2.32,2.38,2.35,2.35,0,0,0-2.32-2.38Z"/><path class="cls-14" d="M707.75,121.42a1.88,1.88,0,1,1,1.83-1.87,1.85,1.85,0,0,1-1.83,1.87Z"/><path class="cls-13" d="M707.75,118.17a1.38,1.38,0,1,1-1.34,1.37,1.36,1.36,0,0,1,1.34-1.37m0-1a2.38,2.38,0,1,0,2.31,2.38,2.35,2.35,0,0,0-2.31-2.38Z"/><path class="cls-14" d="M731.64,108.93a1.88,1.88,0,1,1,1.83-1.88,1.85,1.85,0,0,1-1.83,1.88Z"/><path class="cls-13" d="M731.64,105.68a1.38,1.38,0,1,1-1.34,1.37,1.36,1.36,0,0,1,1.34-1.37m0-1a2.38,2.38,0,1,0,2.32,2.37,2.34,2.34,0,0,0-2.32-2.37Z"/><path class="cls-14" d="M710.68,129.42a1.88,1.88,0,1,1,1.83-1.88,1.85,1.85,0,0,1-1.83,1.88Z"/><path class="cls-13" d="M710.68,126.17a1.38,1.38,0,1,1-1.34,1.37,1.36,1.36,0,0,1,1.34-1.37m0-1a2.38,2.38,0,1,0,2.31,2.37,2.35,2.35,0,0,0-2.31-2.37Z"/><path class="cls-16" d="M721.82,122.8a6.18,6.18,0,1,1,6-6.18,6.12,6.12,0,0,1-6,6.18Z"/><path class="cls-13" d="M721.82,111.44a5.18,5.18,0,1,1-5.05,5.18,5.12,5.12,0,0,1,5.05-5.18m0-2a7.18,7.18,0,1,0,7,7.18,7.09,7.09,0,0,0-7-7.18Z"/><path class="cls-14" d="M784.66,70.14c.19,0-8.71-24.58-8.52-24.59l-15.14,0-.3-.51c-.15,3-.33,7.38-1.25,10.37-1.69,5.44-6.34,8.2-6.71,9.33s2.75,2.1,4,2.23a1.87,1.87,0,0,0,.32,0l-.08.32c2,2.43-1,3-.86,5.17,0,.74,1.22,1.63,1.22,1.63-1.83,2.75-.07,1.44,1.07,3.71,1,2-1.68,5.71-1.38,7.91.52,3.75,5.64,3.91,8.61,3.86a35.6,35.6,0,0,0,14.71-3,34.65,34.65,0,0,0,9.38-5.94l-5.09-10.52Z"/><path class="cls-13" d="M765,90.05c-1.93,0-7.81,0-8.41-4.29a8.63,8.63,0,0,1,.8-3.75c.54-1.51,1.1-3.06.63-4a3,3,0,0,0-1.18-1.27,1.39,1.39,0,0,1-.72-.85c-.08-.41.07-.87.61-1.72a2.91,2.91,0,0,1-1.06-1.69,3.57,3.57,0,0,1,.92-2.41c.61-.83,1-1.34,0-2.48l-.1-.12c-1.08-.16-3.44-.83-4.1-1.88a1.13,1.13,0,0,1-.14-1,5.71,5.71,0,0,1,1.5-1.77,17.79,17.79,0,0,0,5.2-7.55c.88-2.82,1.08-6.92,1.22-9.91l.1-2,1,1.68,14.86,0v.5l.47-.06c.1.5,2.29,6.69,4.23,12.15,3.13,8.85,4,11.43,4.23,12.29h0l5.26,10.86-.27.25a34.59,34.59,0,0,1-9.51,6,36,36,0,0,1-14.9,3c-.23,0-.46,0-.7,0Zm-7.45-22.9c1.19,1.64.43,2.68-.18,3.52a2.65,2.65,0,0,0-.73,1.74c0,.33.61.94,1,1.26L758,74l-.26.4c-.66,1-.71,1.27-.71,1.34l.29.2a4,4,0,0,1,1.52,1.66c.67,1.33,0,3.1-.58,4.81a8.47,8.47,0,0,0-.75,3.26c.33,2.31,2.76,3.44,7.45,3.44h.67a35,35,0,0,0,14.52-2.9,33.92,33.92,0,0,0,9-5.6l-5.27-10.92H784c-.57-1.75-2.42-7-4.08-11.66-2.83-8-3.84-10.83-4.14-11.92H761.14a42.48,42.48,0,0,1-1.23,9.51,18.87,18.87,0,0,1-5.47,8,7.33,7.33,0,0,0-1.24,1.36.19.19,0,0,0,0,.13c.4.64,2.45,1.33,3.56,1.45l.06,0,.15,0,.71-.09-.17.79Z"/><polygon class="cls-16" points="760.45 36.22 808.41 36.22 819.28 23.86 748.1 23.86 760.45 36.22"/><path class="cls-13" d="M808.63,36.63H760.26L746.91,23.45h73.46L808.63,36.63Zm-48-.82h47.53l10-11.54h-68.9l11.36,11.54Z"/><path class="cls-12" d="M760.45,36.22h48l9.41-10.83s-7.81,8-18,8.19S783,25.41,783,25.41s-9,8.17-16.74,8.18-17.14-8.2-17.14-8.2l11.38,10.83Z"/><path class="cls-13" d="M808.41,36.63h-48c-.12,0-.24.12-.33,0L748.74,25.8a.44.44,0,0,1,0-.65.46.46,0,0,1,.67,0c.1.07,9.37,8,16.83,8s16.33-8,16.42-8a.48.48,0,0,1,.36-.12.52.52,0,0,1,.34.18c.06.08,6.57,8,16.19,8h.32c9.85-.18,17.56-7.9,17.64-8a.47.47,0,0,1,.67,0,.5.5,0,0,1,0,.69l-9.42,10.79c-.09.1-.22,0-.36,0Zm-47.76-.82h47.54l5.74-6.61a26.53,26.53,0,0,1-14.07,4.9c-9.15.18-15.47-6.29-17-8-1.81,1.55-9.67,8-16.69,8-4,0-8.46-2.17-11.84-4.24l6.28,6Z"/><path class="cls-13" d="M761.54,67.8a3.81,3.81,0,0,1-1.44-.41c-.91-.4-1.78-.78-2.73,0a.48.48,0,0,1-.68-.1.51.51,0,0,1,.09-.7c1.41-1.09,2.73-.51,3.7-.08.75.32,1.1.44,1.33.22a1.39,1.39,0,0,0,.38-1.59.49.49,0,0,1,.23-.66.48.48,0,0,1,.65.24,2.37,2.37,0,0,1-.61,2.76,1.35,1.35,0,0,1-.93.36Z"/><path class="cls-13" d="M757.22,74.51a.57.57,0,0,1-.18,0,2.3,2.3,0,0,1-1.5-1.62,2.7,2.7,0,0,1,.91-2.36c.69-.7.64-1.8-.13-3.28a.51.51,0,0,1,.2-.68.48.48,0,0,1,.66.21c1.25,2.38.67,3.74,0,4.46a1.72,1.72,0,0,0-.64,1.45,1.33,1.33,0,0,0,.9.89.5.5,0,0,1,.27.65.48.48,0,0,1-.45.31Z"/><path class="cls-13" d="M764.55,90.06c-3.13,0-7.95-.35-8.47-4.11a8.19,8.19,0,0,1,1-3.92c.65-1.53,1.33-3.11.87-4a2.15,2.15,0,0,0-1.14-1.16c-.92-.46-1-1-.44-2.68l.92.33c-.35,1-.31,1.27-.29,1.31a1.21,1.21,0,0,0,.23.14,3.1,3.1,0,0,1,1.59,1.6c.67,1.33-.1,3.14-.85,4.89a7.89,7.89,0,0,0-1,3.37c.47,3.37,6,3.29,8.6,3.24a35,35,0,0,0,14.52-2.9,33.71,33.71,0,0,0,9.24-5.85l.67.74a34.82,34.82,0,0,1-9.51,6,35.86,35.86,0,0,1-14.9,3Z"/><path class="cls-13" d="M763.53,56.41c0-1.12.68-1.88,1.3-1.88s1.12.91,1.12,2-.5,2-1.12,2-1.3-1.07-1.3-2.18Z"/><path class="cls-13" d="M756.41,73.73c.59.36,0,.1.83.13,0,0,.11.32.14.32,1.21-.05,5,.72,5.3.7-.54-.72-5.47-1.76-6.27-1.16Z"/><path class="cls-13" d="M771.38,70.59a3.17,3.17,0,0,1,1.25,2.31v0a2.59,2.59,0,0,1-2,2.75c-1.85.35-3.43-7-13.06-7.41.34,1.28-1,3-1.76,3.88l0,.82c4.47-2.89,11.76,3.8,12.56,4.28,2.2,1.32,4.2,0,4.91-2.69.45-1.66-.73-3.66-2-4Z"/><path class="cls-14" d="M758,82.5,747.18,94.69s22,13.46,45-10.91a50.87,50.87,0,0,1-2.71-4.54c-.14-.22-.19-.83-.4-.67-26.07,19.7-31,3.94-31,3.94Z"/><path class="cls-13" d="M762.32,98.9a31.37,31.37,0,0,1-15.39-3.79l-.51-.31,11.81-13.27.26.82c.08.23,1.88,5.63,8.94,5.63,5.54,0,12.72-3.3,21.34-9.81a.56.56,0,0,1,.35-.13c.45,0,.59.47.68.74a1,1,0,0,0,.07.21c.43.74.77,1.35,1.07,1.87a22.38,22.38,0,0,0,1.61,2.62l.25.34-.29.31c-9.24,9.79-19.4,14.76-30.18,14.76ZM748,94.55a32,32,0,0,0,14.36,3.35c10.4,0,20.23-4.77,29.2-14.17a26.91,26.91,0,0,1-1.43-2.37c-.29-.52-.63-1.12-1.06-1.86a1.47,1.47,0,0,1-.1-.22c-8.6,6.43-15.84,9.7-21.5,9.7a10.11,10.11,0,0,1-9.55-5.57L748,94.55Z"/><path class="cls-13" d="M749.8,96.43a.43.43,0,0,1-.33-.14.49.49,0,0,1,0-.7L757,87.43a.48.48,0,0,1,.69,0,.49.49,0,0,1,0,.7l-7.56,8.17a.49.49,0,0,1-.35.15Z"/><path class="cls-13" d="M752.56,97.6a.47.47,0,0,1-.33-.14.5.5,0,0,1,0-.7l6.34-7a.48.48,0,0,1,.69,0,.5.5,0,0,1,0,.7l-6.34,7a.47.47,0,0,1-.35.15Z"/><path class="cls-13" d="M756.22,98.35a.42.42,0,0,1-.28-.1.51.51,0,0,1-.12-.69l4.72-6.75a.48.48,0,0,1,.68-.12.53.53,0,0,1,.11.7l-4.71,6.75a.49.49,0,0,1-.4.21Z"/><path class="cls-13" d="M759.47,98.52a.5.5,0,0,1-.26-.08.5.5,0,0,1-.15-.69l4.14-6.58a.48.48,0,0,1,.68-.15.51.51,0,0,1,.14.69l-4.14,6.58a.49.49,0,0,1-.41.22Z"/><path class="cls-13" d="M762.72,98.76a.46.46,0,0,1-.23-.06.49.49,0,0,1-.2-.67l3.41-6.5a.49.49,0,0,1,.66-.2.49.49,0,0,1,.2.67l-3.41,6.5a.49.49,0,0,1-.43.26Z"/><path class="cls-13" d="M766.54,98.27a.51.51,0,0,1-.17,0,.52.52,0,0,1-.29-.65l2.11-5.91a.49.49,0,0,1,.63-.3.51.51,0,0,1,.29.64L767,97.94a.49.49,0,0,1-.46.32Z"/><path class="cls-13" d="M770.11,97.77H770a.51.51,0,0,1-.4-.58l1.06-6a.49.49,0,0,1,.57-.4.5.5,0,0,1,.39.58l-1.06,6a.49.49,0,0,1-.47.41Z"/><path class="cls-13" d="M773,97.18H773a.5.5,0,0,1-.41-.57l1-6.75a.5.5,0,0,1,.56-.42.51.51,0,0,1,.41.57l-1,6.75a.49.49,0,0,1-.48.42Z"/><path class="cls-13" d="M776.29,95.76h-.06a.49.49,0,0,1-.43-.55l.73-6.33a.49.49,0,1,1,1,.11l-.73,6.33a.49.49,0,0,1-.49.44Z"/><path class="cls-13" d="M779.54,94.18h0a.5.5,0,0,1-.45-.54l.49-6.16a.49.49,0,0,1,.52-.46.5.5,0,0,1,.45.54L780,93.72a.49.49,0,0,1-.48.46Z"/><path class="cls-13" d="M782.79,92.27h0a.51.51,0,0,1-.45-.54l.49-6.17a.48.48,0,0,1,.53-.45.5.5,0,0,1,.44.54l-.49,6.16a.49.49,0,0,1-.48.46Z"/><path class="cls-13" d="M786.2,89.36a.43.43,0,0,1-.49-.41l-.08-5.42c0-.28.21-.35.48-.35h0c.27,0,.48.1.49.37l.08,5.44c0,.28-.21.37-.48.37Z"/><path class="cls-13" d="M788.77,87.44c-.27,0-.6-.22-.6-.5v-6c0-.27.33-.5.6-.5s.6.23.6.5v6c0,.27-.33.5-.6.5Z"/><path class="cls-14" d="M775.35,45.21l6.12,37.38s0,.2.07.4c-9.37,2.57-7.07,13,3.45,11.42,6.72-.82,24-2.54,26.72-3,6.26-1.25,2.6-13.58,1.3-23.32-1.5-11.31-3.65-22.66-3.65-22.66"/><path class="cls-13" d="M782.88,95.08c-4.52,0-7.1-2.42-7.62-5s1-6,5.72-7.47l-6.12-37.34a.51.51,0,0,1,.41-.58.5.5,0,0,1,.56.41L782,82.5s0,.2.07.4a.5.5,0,0,1-.36.57c-4.41,1.21-5.91,4.1-5.44,6.43.5,2.49,3.44,4.82,8.7,4,3.06-.38,8.28-.93,13.33-1.47,6.13-.66,11.93-1.27,13.39-1.51,4.56-.91,3.17-9,1.82-16.92-.33-1.94-.68-4-.93-5.84C811,57,808.91,45.66,808.89,45.55a.49.49,0,0,1,.38-.58.48.48,0,0,1,.57.39c0,.12,2.16,11.5,3.66,22.68.24,1.87.59,3.88.92,5.81,1.43,8.34,2.91,17-2.61,18.07-1.51.25-7.31.87-13.46,1.52-5,.54-10.26,1.1-13.3,1.47a15.31,15.31,0,0,1-2.17.16Z"/><path class="cls-13" d="M782.32,91.88a3.32,3.32,0,0,1-3.16-2,2.54,2.54,0,0,1,1.21-3.15,2.12,2.12,0,0,1,3,1,.51.51,0,0,1-.17.69.49.49,0,0,1-.67-.17c-.61-1-1.32-.84-1.69-.63a1.58,1.58,0,0,0-.81,1.82c.67,1.34,1.72,1.75,3.41,1.34,2.65-.64,2.6-2.37,2.27-4.57-.17-.93-6.18-38.74-6.43-40.35a.5.5,0,0,1,.4-.58.51.51,0,0,1,.56.42c.06.39,6.26,39.41,6.43,40.34.28,1.81.73,4.81-3,5.72a6.5,6.5,0,0,1-1.33.16Z"/><path class="cls-13" d="M789.13,91.35a.49.49,0,0,1-.48-.37.51.51,0,0,1,.35-.61c2.29-.63,1.29-5.52,1.27-5.57l-6.12-39a.51.51,0,0,1,.41-.58.48.48,0,0,1,.55.42l6.12,39c0,.21,1.25,5.84-2,6.73Z"/><path class="cls-13" d="M794,90.85a.48.48,0,0,1-.47-.37.5.5,0,0,1,.34-.61c2.29-.62,1.29-5.52,1.28-5.57l-6.06-38.57a.5.5,0,0,1,.41-.57.49.49,0,0,1,.56.41l6.05,38.54c0,.21,1.24,5.85-2,6.73Z"/><path class="cls-13" d="M798.87,90.35a.5.5,0,0,1-.12-1C801,88.74,800,83.85,800,83.8l-6-38.29a.5.5,0,0,1,.41-.57.48.48,0,0,1,.55.41l6,38.26c0,.21,1.25,5.84-2,6.72a.3.3,0,0,1-.13,0Z"/><path class="cls-13" d="M803.75,89.85a.48.48,0,0,1-.47-.37.5.5,0,0,1,.34-.61c2.29-.62,1.29-5.52,1.28-5.57L799,45.51a.49.49,0,1,1,1-.16l5.92,37.76c0,.21,1.25,5.84-2,6.73h-.12Z"/><path class="cls-13" d="M808.63,89.35a.47.47,0,0,1-.47-.37.5.5,0,0,1,.34-.61c2.29-.62,1.29-5.52,1.28-5.57l-5.86-37.33a.49.49,0,0,1,.4-.57.5.5,0,0,1,.56.41l5.85,37.3c0,.21,1.25,5.85-2,6.73Z"/><path class="cls-13" d="M768.13,58.18c.42-.06,3.09-.41,3.52-.55a8.76,8.76,0,0,1-3-1.26,6.55,6.55,0,0,0-6.45-1.79s.38,1.05.88,1h.06a6.53,6.53,0,0,1,5,1.15c.43.5.52,1.09-.08,1.42Z"/><rect class="cls-12" x="760.04" y="39.1" width="50.63" height="6.18"/><path class="cls-13" d="M811.07,44.78a.49.49,0,0,1-.49.5H760.12a.49.49,0,0,1-.49-.5V39.19a.49.49,0,0,1,.49-.5h50.46a.49.49,0,0,1,.49.5v5.59Zm-50.63-.32h49.83V39.92H760.44Z"/><path class="cls-16" d="M813.21,46.31a1.81,1.81,0,0,1-1.7,1.85H759.35a1.86,1.86,0,0,1,0-3.7h52.16a1.81,1.81,0,0,1,1.7,1.85Z"/><path class="cls-13" d="M811.51,48.58H759.35a2.27,2.27,0,0,1,0-4.54h52.16a2.27,2.27,0,0,1,0,4.54Zm-52.16-3.3a1.24,1.24,0,0,0,0,2.47h52.16a1.24,1.24,0,0,0,0-2.47Z"/><path class="cls-16" d="M813.21,38.07a1.81,1.81,0,0,1-1.7,1.85H759.35a1.86,1.86,0,0,1,0-3.7h52.16a1.81,1.81,0,0,1,1.7,1.85Z"/><path class="cls-13" d="M811.51,40.34H759.35a2.27,2.27,0,0,1,0-4.53h52.16a2.27,2.27,0,0,1,0,4.53Zm-52.16-3.71a1.24,1.24,0,0,0,0,2.47h52.16a1.24,1.24,0,0,0,0-2.47Z"/><path class="cls-13" d="M763.21,59.25a2,2,0,0,0,3,.91,11.88,11.88,0,0,1-3-.92Z"/><path class="cls-14" d="M781.8,225.14c-.19,0,8.71,24.58,8.52,24.59l15.14,0,.3.51c.15-3,.33-7.37,1.25-10.36,1.69-5.44,6.34-8.2,6.71-9.33s-2.75-2.11-4-2.23a1.1,1.1,0,0,0-.31,0l.07-.32c-2-2.43,1.72-2.16,1.59-4.32,0-.74-.79-1.33-1.89-1.83l.43-.91c1.06-2.91-1.3-1.26-2.44-3.53-1-2,2.56-5.63,2.26-7.83-.52-3.76-5.64-3.91-8.61-3.86a35.75,35.75,0,0,0-14.71,2.94,35.14,35.14,0,0,0-9.38,5.94l5.09,10.52Z"/><path class="cls-13" d="M806.17,251.89l-1-1.69-14.87,0v-.5l-.48.06c-.1-.5-2.29-6.69-4.22-12.14-3.13-8.85-4-11.43-4.24-12.29h0l-5.25-10.86.27-.26a34.6,34.6,0,0,1,9.5-6,36,36,0,0,1,14.91-3h.69c1.93,0,7.81,0,8.41,4.3.16,1.16-.53,2.48-1.25,3.89s-1.5,2.9-1.06,3.78a2.23,2.23,0,0,0,1.5,1.18,1.66,1.66,0,0,1,1.13.82,2.52,2.52,0,0,1-.17,1.93l-.24.5c1.11.59,1.68,1.26,1.73,2a2.61,2.61,0,0,1-1.41,2.3c-.37.27-.71.52-.75.78a1.53,1.53,0,0,0,.46,1l.1.12c1.08.16,3.44.82,4.1,1.87a1.16,1.16,0,0,1,.15,1,5.85,5.85,0,0,1-1.5,1.76,17.82,17.82,0,0,0-5.21,7.56c-.87,2.82-1.07,6.91-1.22,9.9l-.09,2Zm-23.71-26.25c.56,1.74,2.41,7,4.07,11.66,2.83,8,3.84,10.83,4.15,11.92l14.64,0a42.47,42.47,0,0,1,1.23-9.5,18.87,18.87,0,0,1,5.47-8,7.67,7.67,0,0,0,1.24-1.36s0-.05,0-.13c-.4-.64-2.44-1.33-3.56-1.45l-.06,0-.15,0-.71.09.19-.8a2.12,2.12,0,0,1-.52-1.52,2.32,2.32,0,0,1,1.15-1.46c.65-.47,1-.81,1-1.42,0-.45-.58-.94-1.6-1.41l-.46-.21.65-1.37c.28-.77.23-1,.19-1.12s-.29-.19-.57-.29a3.25,3.25,0,0,1-2-1.67c-.67-1.34.21-3.05,1.06-4.71.62-1.2,1.26-2.44,1.15-3.28-.32-2.31-2.76-3.44-7.45-3.44h-.67a35,35,0,0,0-14.52,2.9,34.09,34.09,0,0,0-9,5.6l5.28,10.91h-.14Z"/><polygon class="cls-16" points="806.01 258.67 758.05 258.67 747.18 271.03 818.36 271.03 806.01 258.67"/><path class="cls-13" d="M819.55,271.85H746.09l11.75-13.59h48.37l13.34,13.59Zm-71.28-1.23h68.9l-11.36-11.54H758.27Z"/><path class="cls-12" d="M806,258.67h-48l-9.42,11s7.81-7.9,18-8.09,16.9,8.22,16.9,8.22,9-8.15,16.74-8.15,17.14,8,17.14,8l-11.38-11Z"/><path class="cls-13" d="M783.51,270.34h0a.48.48,0,0,1-.33-.18c-.07-.08-6.73-8.2-16.52-8s-17.56,7.91-17.63,8a.49.49,0,0,1-.68,0,.51.51,0,0,1,0-.7l9.41-11a.54.54,0,0,1,.37-.22h48a.52.52,0,0,1,.33.18l11.39,10.95a.53.53,0,0,1,0,.71.49.49,0,0,1-.68.06c-.09-.08-9.37-8-16.82-8s-16.34,7.95-16.42,8a.46.46,0,0,1-.33.13Zm-16.57-9.19c9,0,15.15,6.33,16.62,8,1.81-1.56,9.67-8,16.69-8,4,0,8.42,1.95,11.79,4l-6.22-6.12H758.28l-5.72,6.78a26.46,26.46,0,0,1,14.05-4.78c.11,0,.22.07.33.07Z"/><path class="cls-13" d="M805.25,231.81a2,2,0,0,1-1.77-1,2.39,2.39,0,0,1,.52-2.93c.72-.66,1.59-.28,2.36,0s1.78.78,2.74,0a.47.47,0,0,1,.68.1.51.51,0,0,1-.1.7c-1.4,1.08-2.73.5-3.7.08-.74-.32-1.09-.44-1.32-.23a1.37,1.37,0,0,0-.34,1.69,1.11,1.11,0,0,0,1.41.46.49.49,0,0,1,.62.32.51.51,0,0,1-.31.63,2.31,2.31,0,0,1-.79.14Z"/><path class="cls-13" d="M809.71,228.8a.46.46,0,0,1-.34-.15,2.48,2.48,0,0,1-.91-1.69,2.28,2.28,0,0,1,1-1.53c.16-.15.33-.3.5-.48a1.14,1.14,0,0,0,.44-1,2,2,0,0,0-1.33-1.2.5.5,0,0,1-.27-.65.49.49,0,0,1,.63-.28,2.89,2.89,0,0,1,1.93,1.93,2.11,2.11,0,0,1-.71,1.93c-.18.19-.37.36-.54.52-.35.32-.66.6-.66.81s.07.39.62.95a.49.49,0,0,1-.34.84Z"/><path class="cls-13" d="M810.05,221.11l-.92-.33c.4-1.17.24-1.23-.53-1.5a3.37,3.37,0,0,1-2.12-1.71c-.68-1.36.41-3.08,1.46-4.75.78-1.24,1.59-2.52,1.47-3.35-.46-3.37-6-3.29-8.6-3.24a35,35,0,0,0-14.52,2.9,33.71,33.71,0,0,0-9.24,5.85l-.66-.74a34.6,34.6,0,0,1,9.5-6,35.86,35.86,0,0,1,14.9-3c2.92,0,9-.15,9.59,4.1.17,1.2-.7,2.58-1.62,4s-1.84,2.9-1.42,3.74a2.39,2.39,0,0,0,1.58,1.22c1,.36,1.79.82,1.13,2.78Z"/><path class="cls-13" d="M802.93,238.87c0,1.12-.68,1.88-1.3,1.88s-1.11-.91-1.11-2,.5-2,1.11-2,1.31,1.06,1.31,2.18Z"/><path class="cls-13" d="M806.66,222.43a19.74,19.74,0,0,0,4,.22,2.89,2.89,0,0,0-1.78-.84,19.56,19.56,0,0,1-5.08-.62,7.15,7.15,0,0,0,2.88,1.24Z"/><path class="cls-13" d="M795.09,224.69a3.15,3.15,0,0,1-1.26-2.31v0a2.58,2.58,0,0,1,2-2.75c1.85-.36,3.43,7,13.05,7.41-.34-1.28,1-2,1.77-2.89l0-.81c-4.48,2.89-11.76-4.8-12.56-5.28-2.2-1.32-4.21.05-4.92,2.69a3.49,3.49,0,0,0,2,4Z"/><path class="cls-14" d="M808.43,212.77l10.85-12.18s-22-13.46-45,10.91c1,1.3,1.39,2.27,2.72,4.54.13.22.19.82.39.67,26.07-19.7,31-3.93,31-3.93Z"/><path class="cls-13" d="M777.35,217.24c-.46,0-.6-.47-.68-.74,0-.08,0-.15-.07-.21-.44-.74-.78-1.35-1.07-1.87a23.81,23.81,0,0,0-1.62-2.62l-.25-.34.29-.31c9.25-9.8,19.41-14.77,30.19-14.77a31.37,31.37,0,0,1,15.39,3.79l.52.31-11.82,13.27-.26-.82c-.07-.23-1.88-5.63-8.93-5.63-5.55,0-12.73,3.3-21.34,9.81a.54.54,0,0,1-.35.13Zm-2.41-5.69a25.51,25.51,0,0,1,1.43,2.37c.3.52.63,1.12,1.07,1.86a.85.85,0,0,1,.09.22c8.6-6.44,15.84-9.7,21.51-9.7a10.09,10.09,0,0,1,9.54,5.57l9.92-11.14a31.87,31.87,0,0,0-14.36-3.35c-10.4,0-20.22,4.77-29.2,14.17Z"/><path class="cls-13" d="M809.11,208a.49.49,0,0,1-.34-.14.51.51,0,0,1,0-.71l7.56-8.16a.48.48,0,0,1,.69,0,.52.52,0,0,1,0,.71l-7.56,8.16a.51.51,0,0,1-.36.15Z"/><path class="cls-13" d="M807.56,205.68a.47.47,0,0,1-.33-.14.49.49,0,0,1,0-.7l6.33-7a.49.49,0,0,1,.69,0,.51.51,0,0,1,0,.71l-6.34,7a.49.49,0,0,1-.35.15Z"/><path class="cls-13" d="M805.53,204.68a.48.48,0,0,1-.28-.1.52.52,0,0,1-.12-.7l4.72-6.74a.48.48,0,0,1,.68-.12.51.51,0,0,1,.11.7l-4.72,6.75a.48.48,0,0,1-.39.21Z"/><path class="cls-13" d="M802.85,204.34a.47.47,0,0,1-.27-.08.51.51,0,0,1-.14-.69l4.14-6.58a.49.49,0,0,1,.68-.15.51.51,0,0,1,.14.69l-4.14,6.58a.48.48,0,0,1-.41.23Z"/><path class="cls-13" d="M800.33,204a.46.46,0,0,1-.23-.06.51.51,0,0,1-.2-.68l3.41-6.5a.49.49,0,0,1,.66-.2.5.5,0,0,1,.2.68l-3.41,6.49a.5.5,0,0,1-.43.27Z"/><path class="cls-13" d="M797.81,203.93a.45.45,0,0,1-.16,0,.5.5,0,0,1-.29-.65l2.11-5.91a.48.48,0,0,1,.62-.3.5.5,0,0,1,.29.64l-2.11,5.92a.48.48,0,0,1-.46.32Z"/><path class="cls-13" d="M795.29,204.51h-.08a.51.51,0,0,1-.4-.58l1.06-6a.49.49,0,0,1,.57-.4.5.5,0,0,1,.39.58l-1.06,6a.48.48,0,0,1-.47.41Z"/><path class="cls-13" d="M792.45,205.84h-.07a.5.5,0,0,1-.41-.57l1-6.75a.5.5,0,0,1,.56-.42.51.51,0,0,1,.41.57l-1,6.74a.49.49,0,0,1-.48.43Z"/><path class="cls-13" d="M789.44,206.84h-.06a.5.5,0,0,1-.42-.56l.73-6.33a.48.48,0,0,1,.54-.43.49.49,0,0,1,.43.55l-.73,6.33a.5.5,0,0,1-.49.44Z"/><path class="cls-13" d="M786.44,208.26h0a.5.5,0,0,1-.45-.54l.49-6.16a.5.5,0,0,1,.52-.46.51.51,0,0,1,.45.54l-.49,6.17a.48.48,0,0,1-.48.45Z"/><path class="cls-13" d="M783.19,210.17h0a.5.5,0,0,1-.45-.54l.49-6.16a.48.48,0,0,1,.52-.46.5.5,0,0,1,.45.54l-.49,6.16a.49.49,0,0,1-.48.46Z"/><path class="cls-13" d="M780.34,212.53c-.26,0-.48-.31-.49-.59l-.08-5.54a.46.46,0,0,1,.48-.46h0c.27,0,.48.13.49.4l.08,5.63a.54.54,0,0,1-.48.56Z"/><path class="cls-13" d="M777.72,214.88c-.27,0-.4-.23-.4-.5v-6c0-.28.13-.5.4-.5s.4.22.4.5v6c0,.27-.13.49-.4.49Z"/><path class="cls-14" d="M791.12,250.07,785,212.69s0-.2-.07-.41c9.37-2.56,7.07-13-3.45-11.41-6.72.81-24,2.54-26.72,3-6.26,1.25-2.6,13.58-1.3,23.32,1.51,11.3,3.65,22.66,3.65,22.66"/><path class="cls-13" d="M791.12,250.57a.5.5,0,0,1-.49-.42l-6.12-37.38s0-.2-.07-.4a.51.51,0,0,1,.36-.57c4.41-1.21,5.91-4.1,5.44-6.42-.5-2.5-3.44-4.82-8.7-4-3.06.37-8.28.93-13.33,1.47-6.13.65-11.93,1.27-13.38,1.5-4.57.92-3.17,9-1.83,16.92.34,1.94.68,4,.93,5.84,1.49,11.16,3.62,22.52,3.65,22.63a.51.51,0,0,1-.39.59.49.49,0,0,1-.57-.4c0-.11-2.16-11.49-3.65-22.68-.25-1.87-.6-3.87-.93-5.81-1.43-8.34-2.9-17,2.62-18.07,1.5-.24,7.3-.86,13.45-1.52,5-.54,10.26-1.09,13.3-1.46,5.87-.89,9.19,1.86,9.79,4.81.54,2.7-1,6-5.72,7.46L791.6,250a.5.5,0,0,1-.4.57.13.13,0,0,1-.08,0Z"/><path class="cls-13" d="M786.7,250.05a.49.49,0,0,1-.48-.42c-.06-.39-6.26-39.41-6.43-40.34-.28-1.81-.73-4.81,3-5.72,2.12-.51,3.64.12,4.51,1.87a2.54,2.54,0,0,1-1.21,3.15,2.12,2.12,0,0,1-3-1,.51.51,0,0,1,.17-.69.49.49,0,0,1,.67.17c.61,1,1.32.84,1.69.63a1.58,1.58,0,0,0,.81-1.82c-.67-1.34-1.72-1.76-3.41-1.34-2.65.64-2.6,2.37-2.27,4.57.17.93,6.18,38.74,6.44,40.35a.5.5,0,0,1-.41.57.12.12,0,0,1-.08,0Z"/><path class="cls-13" d="M781.83,250.05a.48.48,0,0,1-.48-.42l-6.12-39c-.05-.21-1.25-5.85,2-6.73a.49.49,0,0,1,.6.36.5.5,0,0,1-.35.61c-2.29.62-1.28,5.52-1.27,5.57l6.12,39a.5.5,0,0,1-.4.57h-.08Z"/><path class="cls-13" d="M776.89,250.13a.49.49,0,0,1-.48-.42l-6-38.54c-.05-.21-1.25-5.85,2-6.73a.49.49,0,0,1,.6.36.51.51,0,0,1-.35.61c-2.29.62-1.29,5.52-1.28,5.57l6.06,38.57a.5.5,0,0,1-.4.57Z"/><path class="cls-13" d="M772,250.34a.48.48,0,0,1-.48-.42l-6-38.25c-.05-.21-1.25-5.84,2-6.73a.49.49,0,0,1,.6.36.5.5,0,0,1-.35.61c-2.29.62-1.28,5.52-1.27,5.57l6,38.28a.51.51,0,0,1-.41.58H772Z"/><path class="cls-13" d="M767,250.34a.48.48,0,0,1-.48-.42l-5.93-37.75c-.05-.21-1.25-5.85,2-6.73a.48.48,0,0,1,.59.36.5.5,0,0,1-.34.61c-2.29.62-1.29,5.52-1.28,5.57l5.94,37.78a.51.51,0,0,1-.41.58H767Z"/><path class="cls-13" d="M762.07,250.39a.5.5,0,0,1-.49-.43l-5.85-37.29c-.05-.21-1.25-5.85,2-6.73a.49.49,0,0,1,.6.36.5.5,0,0,1-.35.61c-2.29.62-1.28,5.52-1.27,5.57l5.86,37.32a.51.51,0,0,1-.41.58h-.07Z"/><path class="cls-13" d="M798.34,237.1c-.43.06-3.09.41-3.53.54,1.28.21,2.45,1.56,2.76,1.76,1.08,1,3.07,2,6.66,1.3,0,0-.39-1-.88-1h-.07a7.47,7.47,0,0,1-5.48-1c-.43-.49-.07-1.23.54-1.55Z"/><rect class="cls-12" x="755.62" y="250.43" width="50.63" height="5.36"/><path class="cls-13" d="M806.65,255.73a.43.43,0,0,1-.36.47H755.58a.43.43,0,0,1-.36-.47v-5.65a.43.43,0,0,1,.36-.47h50.71a.43.43,0,0,1,.36.47v5.65Zm-50.23-.36h49.43v-4.53H756.42Z"/><path class="cls-16" d="M808.66,248.78a1.63,1.63,0,0,1-1.61,1.65H754.81a1.65,1.65,0,0,1,0-3.3h52.24A1.63,1.63,0,0,1,808.66,248.78Z"/><path class="cls-13" d="M807.12,251.25H755a2.27,2.27,0,0,1,0-4.53h52.16a2.27,2.27,0,0,1,0,4.53ZM755,248a1.24,1.24,0,0,0,0,2.47h52.16a1.24,1.24,0,0,0,0-2.47Z"/><path class="cls-16" d="M808.66,257a1.63,1.63,0,0,1-1.61,1.65H754.81a1.65,1.65,0,0,1,0-3.3h52.24A1.63,1.63,0,0,1,808.66,257Z"/><path class="cls-13" d="M807.12,259.08H755a2.27,2.27,0,0,1,0-4.53h52.16a2.27,2.27,0,0,1,0,4.53ZM755,255.79a1.24,1.24,0,0,0,0,2.47h52.16a1.24,1.24,0,0,0,0-2.47Z"/><path class="cls-13" d="M803.25,236a2,2,0,0,0-3-.92,12,12,0,0,1,3,.92Z"/><path class="cls-13" d="M772.16,55.52c-1.28-4.73-10.54-1.94-10.54-1.94l.33-2.12s10-2.42,10.21,4.06Z"/></g><path class="cls-17" d="M867.77,220.78s22.89,2.22,52.52-20.94l-6.69,24.32,25.41-.32s-32.23,32.09-65.24,27.34Z"/><path class="cls-17" d="M689.62,220.78S666.74,223,637.1,199.84l6.69,24.32-25.4-.32s32.23,32.09,65.24,27.34Z"/><path class="cls-18" d="M777.88,282.42c-68.69,0-117.19-19.34-123.94-22.18l10.36-34.79c48.6,17.07,112.91,18.8,113.55,18.82s65-1.75,113.61-18.82l10.36,34.79C895.07,263.08,846.57,282.42,777.88,282.42Z"/><path class="cls-19" d="M665,226.74c48.63,16.8,112.23,18.51,112.87,18.52h.1c.64,0,64.24-1.72,112.87-18.52l9.8,32.93c-9.14,3.75-56.48,21.75-122.72,21.75s-113.57-18-122.73-21.76L665,226.74m227.15-2.58C843,241.71,777.88,243.27,777.88,243.27s-65.11-1.56-114.24-19.11l-10.91,36.65S703,283.42,777.88,283.42,903,260.81,903,260.81l-10.92-36.65Z"/><text class="cls-20" transform="matrix(0.95, 0.32, -0.32, 0.95, 670.98, 251.14)">K</text><text class="cls-20" transform="translate(683.94 255.47) rotate(16.78)">I</text><text class="cls-20" transform="matrix(0.97, 0.25, -0.25, 0.97, 691.88, 257.89)">N</text><text class="cls-20" transform="translate(706.11 261.6) rotate(11.96)">G</text><text class="cls-20" transform="matrix(0.99, 0.16, -0.16, 0.99, 721.39, 264.79)">D</text><text class="cls-20" transform="translate(736.45 267.18) rotate(6.43)">O</text><text class="cls-20" transform="matrix(1, 0.06, -0.06, 1, 751.25, 268.84)">M</text><text class="cls-20" transform="translate(769.01 269.78) rotate(1.28)"> </text><text class="cls-20" transform="translate(775.27 269.9) rotate(0.14)"> </text><text class="cls-20" transform="translate(781.58 269.94) rotate(-1.69)">R</text><text class="cls-20" transform="translate(795.22 269.5) rotate(-4.11)">E</text><text class="cls-20" transform="matrix(0.99, -0.12, 0.12, 0.99, 808.12, 268.56)">U</text><text class="cls-20" transform="translate(822.74 266.82) rotate(-9.3)">N</text><text class="cls-20" transform="matrix(0.98, -0.2, 0.2, 0.98, 837.26, 264.35)">I</text><text class="cls-20" transform="translate(845.37 262.75) rotate(-13.45)">T</text><text class="cls-20" transform="matrix(0.96, -0.27, 0.27, 0.96, 859.5, 259.32)">E</text><text class="cls-20" transform="translate(871.94 255.76) rotate(-18.48)">D</text></g></g></svg>